<?xml version="1.0" encoding="utf-8"?>
<!-- Generator: Adobe Illustrator 28.0.0, SVG Export Plug-In . SVG Version: 6.00 Build 0)  -->
<svg version="1.1" id="Layer_1" xmlns="http://www.w3.org/2000/svg" xmlns:xlink="http://www.w3.org/1999/xlink" x="0px" y="0px"
	 viewBox="0 0 184.3 184.3" style="enable-background:new 0 0 184.3 184.3;" xml:space="preserve">
<style type="text/css">
	.st0{opacity:0.5;}
</style>
<g class="st0">
	<g>
		<g>
			<g>
				<g>
					<path d="M27.1,90.3C27.1,90.4,27.2,90.4,27.1,90.3C27.2,90.2,27.1,90.3,27.1,90.3z"/>
					<polygon points="27,89 27.1,89.1 27,88.9 					"/>
					<path d="M27,87.8c-0.1,0.1,0,0.4,0,0.6l0,0l0.1,0.1C27.1,88.4,27,88,27,87.8z"/>
					<path d="M27.2,87.2c0,0,0-0.1,0,0.1c0,0,0,0,0,0C27.2,87.3,27.2,87.3,27.2,87.2z"/>
					<path d="M27.2,87.3C27.2,87.5,27.2,87.2,27.2,87.3L27.2,87.3z"/>
					<path d="M27.2,86.7l0,0.2C27.2,86.9,27.2,86.7,27.2,86.7C27.2,86.6,27.2,86.7,27.2,86.7z"/>
					<path d="M27.1,86.6L27.1,86.6C27.1,86.7,27.1,86.6,27.1,86.6z"/>
					<path d="M27.2,86.9l0-0.2C27.1,86.7,27.1,86.7,27.2,86.9C27.1,86.7,27.1,86.8,27.2,86.9z"/>
					<path d="M27.2,87C27.1,87.1,27.1,87.2,27.2,87C27.1,87.3,27.2,87.3,27.2,87z"/>
					<path d="M27,87.8l0,0.1l0,0.1C27,88,27,87.8,27,87.8z"/>
					<path d="M27.2,85.7C27.2,85.7,27.2,85.8,27.2,85.7l0,0.2C27.2,85.8,27.2,85.7,27.2,85.7z"/>
					<path d="M27.2,85.8l0-0.2C27.1,85.8,27.1,85.8,27.2,85.8z"/>
					<polygon points="27,86.6 27.1,86.9 27,86.5 					"/>
					<polygon points="27.2,85 27.3,85.1 27.2,84.9 					"/>
					<path d="M27.2,84.6C27.2,84.6,27.3,84.5,27.2,84.6c0.1-0.1,0-0.3,0-0.4C27.2,84.3,27.2,84.4,27.2,84.6z"/>
					<path d="M27.2,84c0,0,0,0.1,0,0.2C27.2,84.2,27.2,84.1,27.2,84z"/>
					<path d="M27.1,85.3c0,0,0,0,0-0.1L27.1,85.3C27.1,85.2,27.1,85.3,27.1,85.3z"/>
					<path d="M27.1,85.2L27.1,85.2c0-0.1,0-0.1,0-0.2C27.1,85.1,27.1,85.1,27.1,85.2z"/>
					<path d="M27.1,85.3L27.1,85.3C27.1,85.3,27.1,85.3,27.1,85.3z"/>
					<path d="M27.1,86.1c0-0.1,0-0.3-0.1-0.1C27,86,27.1,85.9,27.1,86.1z"/>
					<path d="M27.1,85.4l0,0.2c0,0,0,0,0,0L27.1,85.4z"/>
					<polygon points="27.1,85.3 27.1,85.4 27.1,85.3 					"/>
					<path d="M27.2,84.4c0-0.1,0-0.2,0-0.3C27.1,84.2,27.1,84.3,27.2,84.4C27.1,84.4,27.2,84.5,27.2,84.4z"/>
					<path d="M27.1,84.8L27.1,84.8C27.1,84.8,27.1,84.8,27.1,84.8z"/>
					<polygon points="27.1,83.1 27.1,83.1 27.1,83.1 					"/>
					<path d="M27.1,84.5c0,0.1,0,0.1,0,0.2C27.1,84.6,27.1,84.5,27.1,84.5C27.1,84.4,27.1,84.4,27.1,84.5z"/>
					<path d="M27.2,83.8c0,0.1,0,0.1,0,0.1C27.2,83.9,27.2,83.8,27.2,83.8z"/>
					<path d="M27.2,84.7L27.2,84.7C27.2,84.7,27.2,84.7,27.2,84.7z"/>
					<path d="M27.2,84.7c0,0,0-0.1,0-0.1C27.1,84.7,27.1,84.7,27.2,84.7C27.1,84.8,27.1,84.8,27.2,84.7z"/>
					<path d="M26.9,82.8c0,0,0.1,0.2,0,0.4c0,0.2,0.2,0.1,0.2-0.1c0,0,0,0-0.1-0.2c0,0.1-0.1,0.4-0.1,0.3c0-0.3,0-0.2,0-0.3
						c0,0.1-0.1-0.3-0.1-0.3L26.9,82.8C26.9,82.8,26.9,82.7,26.9,82.8z"/>
					<path d="M27.1,83.5L27.1,83.5c0,0,0-0.1,0.1-0.2c0-0.1,0-0.2,0-0.2L27.1,83.5L27.1,83.5z"/>
					<path d="M27.1,83.9c0-0.1-0.1-0.3-0.1-0.1c0,0.2,0,0.2,0.1,0.3C27.1,83.7,27.1,84.2,27.1,83.9c0,0.1,0,0.1,0,0.2
						C27.1,84,27.1,84,27.1,83.9L27.1,83.9L27.1,83.9L27.1,83.9C27.1,83.9,27.1,83.9,27.1,83.9L27.1,83.9
						C27.1,83.9,27.1,83.9,27.1,83.9C27.1,83.8,27.1,83.9,27.1,83.9L27.1,83.9L27.1,83.9l0-0.4C27.1,83.6,27.1,83.7,27.1,83.9z"/>
					<path d="M26.9,85.8C26.9,85.8,26.9,85.8,26.9,85.8C26.9,85.7,26.9,85.7,26.9,85.8z"/>
					<path d="M26.9,85.6c0,0,0,0,0,0.1c0,0.1,0,0,0,0c0,0.1,0,0.2,0.1,0l0,0c0-0.2,0.1-0.3,0.1-0.3C27,85.5,27,85.5,26.9,85.6z"/>
					<path d="M27,84.7l0-0.3l0,0.2l0,0C27,84.8,27,84.7,27,84.7z"/>
					<polygon points="27.2,83 27.2,83.1 27.1,82.9 					"/>
					<polygon points="27.1,82.6 27.2,82.7 27.2,82.5 					"/>
					<path d="M14.1,81.8L14.1,81.8C14.1,81.8,14.1,81.8,14.1,81.8z"/>
					<path d="M14.1,81.1L14.1,81.1C14.1,81.1,14.1,81.1,14.1,81.1z"/>
					<path d="M22.3,77.1C22.2,77,22,77,22,77l0,0C22.2,77,22.2,77,22.3,77.1z"/>
					<path d="M15.5,77.3L15.5,77.3c0.1,0,0.1,0,0.1,0C15.6,77.3,15.5,77.3,15.5,77.3z"/>
					<path d="M15.4,77.5l-0.2,0C15.2,77.5,15.3,77.5,15.4,77.5z"/>
					<path d="M14.1,85.4l0,0.1C14.2,85.3,14.1,85.4,14.1,85.4z"/>
					<path d="M27.1,78.5c0-0.1,0-0.2,0-0.3C27.1,78.3,27.1,78.5,27.1,78.5z"/>
					<path d="M13.6,81.5C13.6,81.5,13.6,81.6,13.6,81.5C13.6,81.5,13.6,81.5,13.6,81.5z"/>
					<path d="M27.2,77.9C27.2,77.9,27.2,77.9,27.2,77.9c0,0.1,0,0.2,0,0.3C27.2,78.1,27.2,78,27.2,77.9z"/>
					<path d="M22,90.1C22,90.1,22,90.1,22,90.1C22,90.1,22,90.1,22,90.1z"/>
					<path d="M25.8,90.6c0,0-0.1,0-0.2,0C25.7,90.6,25.7,90.6,25.8,90.6z"/>
					<path d="M27.2,81C27.2,81.1,27.2,81,27.2,81L27.2,81z"/>
					<path d="M27,81.4C27,81.4,27,81.4,27,81.4C27,81.4,27,81.4,27,81.4z"/>
					<path d="M26.6,77.3L26.6,77.3C26.6,77.3,26.6,77.3,26.6,77.3z"/>
					<path d="M27.1,81.1c0,0,0-0.1,0-0.1C27.2,81.1,27.2,81.1,27.1,81.1z"/>
					<path d="M27.2,81.1C27.2,81.2,27.2,81.2,27.2,81.1C27.2,81.2,27.2,81.2,27.2,81.1z"/>
					<path d="M27.2,80.9c0,0,0,0.1,0,0.1c0,0,0,0,0,0C27.2,81,27.2,80.9,27.2,80.9z"/>
					<path d="M14.9,90.2C14.9,90.2,14.9,90.2,14.9,90.2C15,90.2,15,90.2,14.9,90.2z"/>
					<polygon points="20.1,77.5 20.1,77.5 20,77.5 					"/>
					<path d="M19.7,77.5c0.1-0.1,0.2,0,0.3,0l-0.1-0.1L19.7,77.5z"/>
					<path d="M14.1,83.3l0-0.2c0.1,0.3,0,0.5,0.1,0.2c-0.1,0,0-0.8-0.1-0.9l0-0.1c0,0,0,0.1,0,0.1c0.1-0.3-0.1-0.2-0.1-0.6
						c0-0.1,0-0.2,0-0.1l0-0.3c0-0.1,0-0.1,0,0l0-0.4l0,0c0-0.1-0.1-0.2-0.1-0.3c0-0.1,0,0.1,0,0l0-0.2c0-0.1,0.1,0.1,0.1,0.3
						c0.1-0.2,0-0.2,0-0.7l0,0.2c0.1-0.1,0-0.3,0.1-0.6c0,0.1-0.1,0.5-0.2,0.2c0-0.1,0-0.2,0-0.3c0,0,0-0.1,0-0.3l0.1,0
						c0-0.2-0.1-0.2-0.1-0.3c0-0.2,0.1-0.2,0.1-0.3c0-0.3-0.1,0.2-0.1-0.2c0-0.3,0-0.5,0-0.8c0-0.2,0,0,0.1,0L14,77.8c0,0,0,0,0,0
						c0-0.1-0.1,0-0.1-0.2c0,0,0-0.1,0-0.1c0.1,0,0.2,0.1,0.3,0c0.1,0,0,0,0,0.1c0.4-0.1,0.3,0,0.6-0.1l0.3,0
						c-0.2,0,0.1-0.1,0.3-0.2c-0.1,0-0.1,0-0.2-0.1l0.3,0c0,0,0,0,0,0.1l0.1,0c0.1,0,0.1,0.1,0,0.1l-0.1,0c-0.1,0-0.2,0.1-0.1,0.1
						c0,0,0.1,0,0.1,0c0,0,0,0,0,0c0,0,0,0,0.1,0l0.1,0.1l0,0l0.5,0c0.3-0.1,0.6-0.2,1.1-0.2c-0.1,0.1,0,0.1,0,0.1
						c-0.1-0.1-0.4,0-0.7,0c0.1,0,0.1,0,0.1,0l0.5-0.1c0,0.1,0.1,0,0.2,0.1c-0.1-0.1,0.4-0.1,0.5-0.1c0,0,0,0.1-0.3,0.1
						c0.3,0.1,0.3-0.1,0.6-0.1c-0.1,0-0.1,0-0.1,0c0.1,0,0.5,0,0.4,0l-0.1,0c0.4,0,1.2,0,1.2-0.1c0,0,0,0.1-0.1,0.1l0.7-0.3
						c-0.1,0.1,0.2,0.2-0.1,0.3c0.1,0,0.2,0,0.4,0c-0.1,0-0.2-0.1-0.1-0.1c0.2,0.1,0.2,0,0.4,0.1c-0.1,0,0-0.1,0.2-0.1
						c0,0,0,0.1,0,0.1l0.4-0.1c-0.1,0,0,0.1,0.1,0.1c0,0,0.3,0,0.4,0l-0.2,0c0.4,0,0.4-0.2,0.8-0.2c0,0-0.1,0.1,0.1,0.2
						c0.1-0.1,0.4-0.3,0.8-0.3l0.1,0l0.3,0c-0.2,0.1-0.7,0.3-0.9,0.3c0.2,0,0,0,0.3,0c0.1,0-0.1,0-0.2,0l0.5,0
						c0-0.1,0.4-0.1,0.4-0.1l-0.6,0.1c0-0.1,0.3-0.2,0.7-0.2c0.1,0-0.1,0.1-0.1,0.1c0,0,0.4,0,0.4,0l-0.2,0c0.2,0,0.3-0.1,0.6,0
						c0.1,0,0.3,0.1,0.3,0c-0.1-0.1-0.2-0.3-0.1-0.4c0,0,0.5,0.1,0.6,0.1c0.1,0.1-0.2,0.1-0.1,0.2c0,0,0.1,0,0.1,0
						c0.1,0,0,0.1,0.2,0c0-0.1,0.4,0,0.1-0.1c0.2,0,0.2,0,0.4,0c-0.1,0,0.2-0.1,0.4-0.2c0,0,0,0,0,0.1c0.1,0,0.2,0,0.3,0
						c0,0.2,0,0.4,0,0.7c0,0,0,0.2-0.1,0.1c0,0.1,0,0.1,0,0.2c-0.1,0.2,0-0.3-0.1-0.1c0,0,0.1,0.3,0.1,0.5c0.1-0.1,0-0.4,0-0.5
						c0.1,0,0.2,0.3,0.2,0.7c0,0.3-0.1,0.1,0,0.2c0,0.6,0.1,0.5,0.1,1c-0.1,0.2-0.1,0-0.1,0.1c0-0.3,0-0.4,0-0.6l0,0.2
						c0-0.1,0-0.3,0-0.3c0,0.2,0,1-0.1,1.4c0,0.1,0,0.2,0.1,0.2l0-0.1c0-0.1,0.1,0.3,0.1,0.1c0,0.2,0.1,0.4,0.1,0.7L27,81.7
						c0,0,0-0.2,0-0.3c0,0.1-0.1,0.4,0,0.5l0-0.2c0,0.2,0.1,0.4,0.1,0.7c0.1-0.1,0-0.1,0.1-0.2c-0.1,0.1,0-0.6-0.1-0.4
						c0.1-0.2,0-0.3,0.1-0.5c0,0,0,0.1,0-0.1c0,0,0,0,0,0l0,0l0,0c0,0,0,0,0,0c0,0,0,0.1,0,0.1c0-0.1,0-0.4-0.1-0.5c0-0.1,0,0,0,0
						l0-0.2c0,0,0.1-0.3,0.1,0l0-0.3c0-0.1,0-0.4,0-0.5c0-0.1,0-0.3,0-0.2l0-0.4l0,0c0-0.4-0.1-0.8,0-1.3c0-0.1,0-0.1,0-0.2
						c0-0.1,0-0.3,0-0.4l0-0.1c0-0.1,0-0.1,0-0.2c-0.3,0-0.8,0-0.8,0c-0.2-0.1-0.8,0-1.1,0l0,0.1c-0.2,0-0.4,0-0.7,0l0,0
						c-0.2,0-0.6,0-0.9,0c0,0,0.1,0,0.2,0c-0.4-0.1-0.9,0.1-1.2,0c-0.1,0-0.2,0-0.2,0c0,0,0,0,0,0c0,0,0,0,0,0c0,0-0.1,0-0.1,0
						c0,0,0.1,0,0.1,0c-0.1,0-0.2,0-0.3,0l0,0c0,0,0,0,0,0c-0.1,0-0.1,0,0,0.1c-0.1,0-0.1,0-0.1,0c-0.1-0.1-0.3,0-0.4-0.1
						c-0.1,0-0.5,0-0.6,0.1c0,0,0,0,0,0c-0.1,0-0.2,0-0.3,0l-0.1-0.1l-0.3,0.1c-0.2,0-0.2-0.1-0.1-0.1c-0.4,0.1-0.3,0-0.6,0.1l0,0
						c-0.1,0-0.3,0.1-0.4,0c-0.3-0.1-1.3,0-1.9-0.1c0.1,0.1-0.3-0.1-0.3,0c0,0-0.1,0,0-0.1c-0.3,0-0.5,0-0.7,0c0,0,0.1,0,0-0.1
						c0,0-0.1,0-0.1,0c0,0,0,0,0.1,0c-0.3,0-0.4,0.1-0.4,0.2c-0.2,0-0.3,0-0.4,0c-0.1,0-0.2-0.1,0.1-0.1c-0.1,0-0.7,0-0.8,0
						c0,0-0.2,0-0.2,0c-0.3,0-0.4,0-0.7,0l0.1,0c0,0-0.1,0-0.1,0c0,0.1,0,0.2,0,0.4l0,0c-0.1,0.5,0,0.2,0,0.7l0,0
						c0.1,0-0.1,0.4,0,0.7l0-0.1c0,0.2-0.1,0.4-0.2,0.6c0,0,0-0.1,0-0.1c-0.1,0.4,0.1,0.1,0.1,0.4c0,0.1-0.1-0.1-0.1,0.1
						c0,0.1,0.1,0.6,0,0.9c0-0.1,0.1-0.1,0.1,0c0,0.2-0.1,0.6,0,0.8c0,0,0,0,0,0c0,0.2,0,0.5,0.1,0.6c-0.2,0.2,0.1,1-0.1,1l0,0.5
						l0,0c0,0.3,0,0.4,0.1,0.6c0,0.1,0,0,0,0c0,0.5,0,0.5,0.1,0.9l0,0c0,0.1-0.1,0.7,0,1.1c0,0,0,0,0-0.1c0.1,0.5-0.1,1.2,0,1.4
						l0,0.3c0-0.4,0.1,0.1,0.1-0.1c0,0.2-0.1,0.5-0.1,0.2l0,0c-0.1-0.1,0,0.6-0.1,0.5c0,0.3,0,0.5,0,0.8c0,0.3,0,0.7,0,1
						c0.4,0,0.8,0,1.1,0l-0.1-0.1l0.3,0c0.1,0,0.1,0.1-0.1,0.1c0.1,0,0.3,0,0.3-0.1c0.4,0-0.2,0.1,0,0.1l0.2,0l0,0
						c0.1,0,0.1-0.1,0.4-0.1c0.2,0,0.1,0,0.1,0c0,0,0,0,0.1,0l0.4,0l-0.1-0.1c0.2,0,0.3,0,0.2-0.1c0.2,0.1,1.3,0,1.5,0.1
						c0.2,0,0.4,0,0.7,0c-0.1,0-0.1-0.1,0.1-0.1c-0.1,0.1,0.4,0.1,0.6,0.2c-0.2-0.1,0.7,0,0.4-0.1c0.2,0,0,0.1,0.2,0.1
						c0.5-0.1,1,0,1.6,0c0,0-0.1,0,0-0.1l0.3,0.1c0.1,0,0.1-0.1,0.3,0c0,0-0.1,0,0,0c1.1,0.1,2.3-0.1,3.5,0.1c-0.2,0-0.1,0,0.1,0
						c-0.1,0,0,0,0-0.1l0.5,0.1c0.1-0.1,0.5,0,0.6-0.1l-0.2,0c0.2-0.1-0.3-0.2-0.3-0.3c-0.2,0.1-0.6-0.1-1,0c-0.1,0,0.1,0,0-0.1
						c-0.1,0-0.2,0-0.4,0l0,0c-0.6,0-0.8,0-1.5-0.1l0,0c-0.1,0-0.2,0-0.2,0c-0.2,0.1,0.4,0,0.3,0.1c-0.2-0.1-1,0-1.1-0.1
						c-0.2,0,0.1,0.1-0.2,0.1l-0.1,0l-0.1,0c-0.1,0-0.2,0-0.2-0.1c0,0,0.1,0,0.1,0c-0.2,0-0.5,0-0.6,0l0.2,0c-0.6,0-1.3,0-1.9,0l0,0
						c-0.4,0-0.4,0-0.8,0l0,0c-0.1,0-0.2,0-0.4,0c0.1,0-0.2-0.1-0.1-0.1c-0.5,0-0.2,0-0.6,0.1l-0.1,0c-0.1,0-0.1,0.1-0.4,0.1
						c0.2,0-0.2-0.1,0.1-0.1c-0.5-0.1-0.8,0.1-1,0c-0.2,0.1,0.4,0.1,0.3,0.1c0.1,0-0.2,0.1-0.4,0.1c-0.2,0-0.3-0.1-0.7-0.1
						c0,0,0.1,0,0.1,0c-0.2,0-0.3,0-0.5,0c-0.1,0.1-0.2,0-0.3,0.1l0.4,0c-0.2,0-0.4,0.1-0.8,0.1c0,0,0.1,0,0.2,0c-0.1,0-0.2,0-0.3,0
						c0-0.1,0.5,0,0.7-0.1c-0.1,0-0.4,0.1-0.3,0c-0.2,0.1-0.4,0-0.7,0.1l0,0c-0.1,0-0.1,0-0.2,0c0,0,0,0,0.1-0.1c-0.1,0-0.1,0-0.2,0
						c0,0,0-0.1,0-0.1c0,0,0,0.1,0,0.1c0,0-0.1,0.1,0,0.1c0,0,0,0,0,0c0-0.1,0-0.2,0-0.2c0-0.1,0.1-0.2,0.1-0.5c0,0.1,0,0.3-0.1,0.2
						c0-0.1,0-0.3,0.1-0.3c0-0.4,0,0.1-0.1-0.1c0.1-0.1,0-0.2,0-0.4l0,0c0-0.5-0.1-0.1-0.1-0.5l0.1,0.2l0-0.2l0.1,0
						c0-0.2,0-0.3,0-0.6c0,0.1-0.1,0-0.1-0.2c0-0.1,0,0.1,0-0.2c0,0.1,0.1,0.1,0,0.3c0,0,0,0.1,0,0.1c0-0.2,0-0.4,0-0.5
						c0,0,0,0.1,0,0.1L14,86.8c0-0.1,0,0,0,0c0-0.1,0-0.1,0-0.3c0,0,0.1,0,0.1,0.2l0-0.4c0,0,0-0.2,0.1-0.2c0-0.2-0.1-0.6,0-0.9
						c0,0,0,0,0-0.1c0-0.3,0.1-0.5,0-0.9l0.1-0.2c0-0.3-0.1,0.3-0.1-0.2c0-0.3,0.1-0.1,0.1-0.2c0-0.2-0.1-0.4-0.1-0.7
						C14.1,83.2,14.1,83.2,14.1,83.3z M14,80.1c0,0.1,0,0.2,0,0.2C14,80.3,14,80.2,14,80.1z M16,77.4c0,0-0.1,0-0.2,0
						C15.8,77.4,15.9,77.4,16,77.4z M27.1,80.1L27.1,80.1C27.1,79.9,27.1,80,27.1,80.1z M27.1,80.4C27.1,80.4,27.1,80.4,27.1,80.4
						c0,0,0-0.1,0-0.1C27.1,80.2,27.1,80.3,27.1,80.4z M15.8,90.6L15.8,90.6C15.9,90.5,15.9,90.5,15.8,90.6z"/>
					<path d="M15.4,77.5C15.4,77.5,15.4,77.5,15.4,77.5C15.3,77.5,15.3,77.5,15.4,77.5z"/>
					<path d="M14.1,85.3L14.1,85.3C14.1,85.4,14.1,85.4,14.1,85.3L14.1,85.3z"/>
					<path d="M25.5,77.5c-0.1,0-0.1,0-0.1,0C25.3,77.5,25.4,77.5,25.5,77.5z"/>
					<path d="M27.2,81.9l0-0.2C27.2,81.8,27.2,81.8,27.2,81.9C27.2,81.9,27.2,81.8,27.2,81.9z"/>
					<path d="M26.9,83.5C26.9,83.6,26.9,83.5,26.9,83.5L26.9,83.5C26.9,83.5,26.9,83.4,26.9,83.5z"/>
					<path d="M27,82.1c0,0,0,0.1,0,0.3v0C27.1,82.3,27,82.2,27,82.1z"/>
					<path d="M27,82.4c0,0,0,0.1,0,0.1C27,82.5,27,82.4,27,82.4z"/>
					<path d="M27.1,80.7C27.1,80.8,27.2,80.8,27.1,80.7C27.2,80.9,27.1,80.4,27.1,80.7z"/>
					<polygon points="26.9,82.2 26.9,82.1 26.9,82.1 					"/>
					<path d="M26.9,81.1l0,0.2c0,0,0,0,0,0.1C26.9,81.3,26.9,81.1,26.9,81.1z"/>
					<path d="M26.9,81.4c0,0.1,0,0.1,0,0.2C26.9,81.5,26.9,81.5,26.9,81.4z"/>
					<polygon points="26.9,81.9 26.9,81.8 26.9,81.7 					"/>
					<path d="M26.9,78.9l0-0.2c0,0,0,0,0,0.1C26.9,78.9,26.9,78.9,26.9,78.9z"/>
					<path d="M26.8,79.6c0-0.1,0-0.1,0-0.1l-0.1,0L26.8,79.6z"/>
					<path d="M26.8,78.9C26.8,78.9,26.7,78.6,26.8,78.9C26.8,78.9,26.8,79.1,26.8,78.9z"/>
					<polygon points="25.1,77.3 25.2,77.3 25.1,77.2 					"/>
					<path d="M22.1,77.6c0.3,0,0.1-0.1,0.3,0c0.1,0-0.2,0-0.1,0C22.1,77.5,22,77.5,22.1,77.6z"/>
					<path d="M22.3,77.5C22.3,77.5,22.3,77.5,22.3,77.5C22.3,77.5,22.3,77.5,22.3,77.5z"/>
					<polygon points="26.4,90.6 26.6,90.6 26.5,90.6 					"/>
					<path d="M26.8,90.5L26.8,90.5l0.1,0C26.9,90.5,26.8,90.6,26.8,90.5z"/>
					<path d="M14.2,79.6L14.2,79.6c0,0,0,0.1,0,0.1L14.2,79.6z"/>
					<polygon points="14.1,82 14.1,81.9 14.1,82 					"/>
					<path d="M14.2,83.9c0-0.1,0-0.2,0-0.3C14.2,83.9,14.1,84,14.2,83.9z"/>
				</g>
			</g>
		</g>
	</g>
</g>
<g class="st0">
	<g>
		<g>
			<g>
				<g>
					<path d="M26.8,92.4C26.9,92.4,26.9,92.4,26.8,92.4C26.8,92.4,26.8,92.4,26.8,92.4z"/>
					<polygon points="25.6,92.5 25.6,92.5 25.4,92.5 					"/>
					<path d="M24.4,92.5c0.1,0.1,0.4,0,0.6,0l0,0l0.1-0.1C24.9,92.5,24.6,92.5,24.4,92.5z"/>
					<path d="M23.7,92.3c0,0-0.1,0,0.1,0c0,0,0,0,0,0C23.8,92.3,23.8,92.3,23.7,92.3z"/>
					<path d="M23.9,92.3C24,92.3,23.8,92.3,23.9,92.3L23.9,92.3z"/>
					<path d="M23.3,92.4l0.2,0C23.4,92.3,23.3,92.3,23.3,92.4C23.1,92.3,23.2,92.3,23.3,92.4z"/>
					<path d="M23.1,92.4L23.1,92.4C23.2,92.4,23.2,92.4,23.1,92.4z"/>
					<path d="M23.4,92.4l-0.2,0C23.2,92.4,23.2,92.4,23.4,92.4C23.3,92.4,23.3,92.4,23.4,92.4z"/>
					<path d="M23.5,92.4C23.6,92.4,23.7,92.4,23.5,92.4C23.9,92.4,23.8,92.4,23.5,92.4z"/>
					<path d="M24.3,92.6l0.1,0l0.1,0C24.5,92.6,24.3,92.5,24.3,92.6z"/>
					<path d="M22.2,92.3C22.2,92.3,22.3,92.4,22.2,92.3l0.2,0C22.4,92.4,22.3,92.3,22.2,92.3z"/>
					<path d="M22.3,92.4l-0.2,0C22.3,92.4,22.3,92.4,22.3,92.4z"/>
					<polygon points="23.1,92.5 23.4,92.4 23,92.5 					"/>
					<polygon points="21.6,92.3 21.7,92.3 21.5,92.3 					"/>
					<path d="M21.1,92.3C21.2,92.3,21,92.3,21.1,92.3c-0.1-0.1-0.3,0-0.4,0C20.8,92.3,20.9,92.3,21.1,92.3z"/>
					<path d="M20.6,92.3c0,0,0.1,0,0.2,0C20.7,92.3,20.6,92.3,20.6,92.3z"/>
					<path d="M21.8,92.4c0,0,0,0-0.1,0L21.8,92.4C21.8,92.4,21.8,92.4,21.8,92.4z"/>
					<path d="M21.8,92.4L21.8,92.4c-0.1,0-0.1,0-0.2,0C21.6,92.4,21.7,92.4,21.8,92.4z"/>
					<path d="M21.8,92.4L21.8,92.4C21.8,92.4,21.8,92.4,21.8,92.4z"/>
					<path d="M22.6,92.5c-0.1,0-0.3,0-0.1,0.1C22.6,92.5,22.5,92.5,22.6,92.5z"/>
					<path d="M21.9,92.5l0.2,0c0,0,0,0,0,0L21.9,92.5z"/>
					<polygon points="21.8,92.5 21.9,92.5 21.9,92.5 					"/>
					<path d="M20.9,92.4c-0.1,0-0.2,0-0.3,0C20.7,92.4,20.9,92.4,20.9,92.4C21,92.4,21,92.4,20.9,92.4z"/>
					<path d="M21.3,92.4L21.3,92.4C21.3,92.4,21.3,92.4,21.3,92.4z"/>
					<polygon points="19.6,92.4 19.6,92.4 19.6,92.4 					"/>
					<path d="M21,92.4c0.1,0,0.1,0,0.2,0C21.1,92.4,21,92.4,21,92.4C21,92.4,21,92.4,21,92.4z"/>
					<path d="M20.3,92.4c0.1,0,0.1,0,0.1,0C20.4,92.4,20.3,92.4,20.3,92.4z"/>
					<path d="M21.3,92.4L21.3,92.4C21.3,92.4,21.3,92.4,21.3,92.4z"/>
					<path d="M21.3,92.4c0,0-0.1,0-0.1,0C21.2,92.4,21.2,92.4,21.3,92.4C21.3,92.4,21.3,92.4,21.3,92.4z"/>
					<path d="M19.3,92.7c0,0,0.2-0.1,0.4,0c0.2,0,0.1-0.2-0.1-0.2c0,0,0,0-0.2,0.1c0.1,0,0.4,0.1,0.3,0.1c-0.3,0-0.2,0-0.3,0
						c0.1,0-0.3,0.1-0.3,0.1L19.3,92.7C19.3,92.7,19.2,92.7,19.3,92.7z"/>
					<path d="M20,92.4L20,92.4c0,0-0.1,0-0.2-0.1c-0.1,0-0.2,0-0.2,0L20,92.4L20,92.4z"/>
					<path d="M20.4,92.4c-0.1,0-0.3,0.1-0.1,0.1c0.2,0,0.2,0,0.3-0.1C20.2,92.5,20.7,92.4,20.4,92.4c0.1,0,0.1,0,0.2,0
						C20.6,92.4,20.5,92.4,20.4,92.4L20.4,92.4L20.4,92.4L20.4,92.4C20.5,92.4,20.5,92.4,20.4,92.4L20.4,92.4
						C20.4,92.4,20.4,92.4,20.4,92.4C20.3,92.4,20.4,92.4,20.4,92.4L20.4,92.4L20.4,92.4l-0.4,0C20.1,92.4,20.2,92.4,20.4,92.4z"/>
					<path d="M22.3,92.6C22.3,92.6,22.3,92.6,22.3,92.6C22.3,92.6,22.3,92.6,22.3,92.6z"/>
					<path d="M22.1,92.6c0,0,0,0,0.1,0c0.1,0,0,0,0,0c0.1,0,0.2,0,0-0.1l0,0c-0.2,0-0.3-0.1-0.3-0.1C22,92.5,22,92.6,22.1,92.6z"/>
					<path d="M21.3,92.5l-0.3,0l0.2,0l0,0C21.3,92.6,21.2,92.5,21.3,92.5z"/>
					<polygon points="19.6,92.4 19.6,92.3 19.4,92.4 					"/>
					<polygon points="19.2,92.4 19.2,92.4 19.1,92.4 					"/>
					<path d="M18.3,105.5L18.3,105.5C18.3,105.5,18.3,105.5,18.3,105.5z"/>
					<path d="M17.6,105.5L17.6,105.5C17.6,105.5,17.6,105.5,17.6,105.5z"/>
					<path d="M13.6,97.3c0,0.1-0.1,0.3,0,0.3l0,0C13.6,97.4,13.6,97.3,13.6,97.3z"/>
					<path d="M13.8,104.1L13.8,104.1c0-0.1,0-0.1,0-0.1C13.8,104,13.8,104,13.8,104.1z"/>
					<path d="M14,104.2l0,0.2C14,104.3,14,104.2,14,104.2z"/>
					<path d="M21.9,105.4l0.1,0C21.8,105.4,21.9,105.4,21.9,105.4z"/>
					<path d="M15,92.4c-0.1,0-0.2,0-0.3,0C14.9,92.4,15,92.4,15,92.4z"/>
					<path d="M18,105.9C18.1,105.9,18.1,105.9,18,105.9C18,105.9,18,105.9,18,105.9z"/>
					<path d="M14.4,92.4C14.4,92.4,14.4,92.4,14.4,92.4c0.1,0,0.2,0,0.3,0C14.6,92.4,14.5,92.4,14.4,92.4z"/>
					<path d="M26.6,97.6C26.6,97.6,26.7,97.6,26.6,97.6C26.6,97.5,26.6,97.6,26.6,97.6z"/>
					<path d="M27.1,93.8c0,0,0,0.1,0,0.2C27.1,93.9,27.1,93.8,27.1,93.8z"/>
					<path d="M17.5,92.4C17.6,92.4,17.6,92.4,17.5,92.4L17.5,92.4z"/>
					<path d="M18,92.5C17.9,92.6,17.9,92.6,18,92.5C17.9,92.6,17.9,92.5,18,92.5z"/>
					<path d="M13.8,92.9L13.8,92.9C13.8,92.9,13.8,92.9,13.8,92.9z"/>
					<path d="M17.7,92.4c0,0-0.1,0-0.1,0C17.6,92.4,17.6,92.4,17.7,92.4z"/>
					<path d="M17.6,92.4C17.7,92.4,17.7,92.4,17.6,92.4C17.7,92.4,17.7,92.4,17.6,92.4z"/>
					<path d="M17.4,92.4c0,0,0.1,0,0.1,0c0,0,0,0,0,0C17.5,92.4,17.5,92.4,17.4,92.4z"/>
					<path d="M26.8,104.6C26.8,104.6,26.8,104.6,26.8,104.6C26.7,104.5,26.8,104.5,26.8,104.6z"/>
					<polygon points="14,99.5 14,99.5 14,99.5 					"/>
					<path d="M14.1,99.8c-0.1-0.1,0-0.2,0-0.3l-0.1,0.1L14.1,99.8z"/>
					<path d="M19.9,105.5l-0.2,0c0.3-0.1,0.5,0,0.2-0.1c0,0.1-0.8,0-0.9,0.1l-0.1,0c0,0,0.1,0,0.1,0c-0.3-0.1-0.2,0.1-0.6,0.1
						c-0.1,0-0.2,0-0.1,0l-0.3,0c-0.1,0-0.1,0,0,0l-0.4,0l0,0c-0.1,0-0.2,0.1-0.3,0.1c-0.1,0,0.1,0,0,0l-0.2,0
						c-0.1,0,0.1-0.1,0.3-0.1c-0.2-0.1-0.2,0-0.7,0l0.2,0c-0.1-0.1-0.3,0-0.6-0.1c0.1,0,0.5,0.1,0.2,0.2c-0.1,0-0.2,0-0.3,0
						c0,0-0.1,0-0.3,0l0-0.1c-0.2,0-0.2,0.1-0.3,0.1c-0.2,0-0.2-0.1-0.3-0.1c-0.3,0,0.2,0.1-0.2,0.1c-0.3,0-0.5,0-0.8,0
						c-0.2,0,0,0,0-0.1l-0.2,0.1c0,0,0,0,0,0c-0.1,0,0,0.1-0.2,0.1c0,0-0.1,0-0.1,0c0-0.1,0.1-0.2,0-0.3c0-0.1,0,0,0.1,0
						c-0.1-0.4,0-0.3-0.1-0.6l0-0.3c0,0.2-0.1-0.1-0.2-0.3c0,0.1,0,0.1-0.1,0.2l0-0.3c0,0,0,0,0.1,0l0-0.1c0-0.1,0.1-0.1,0.1,0
						l0,0.1c0,0.1,0.1,0.2,0.1,0.1c0,0,0-0.1,0-0.1c0,0,0,0,0,0c0,0,0,0,0-0.1l0.1-0.1l0,0l0-0.5c-0.1-0.3-0.2-0.6-0.2-1.1
						c0.1,0.1,0.1,0,0.1,0c-0.1,0.1,0,0.4,0,0.7c0-0.1,0-0.1,0-0.1l-0.1-0.5c0.1,0,0-0.1,0.1-0.2c-0.1,0.1-0.1-0.4-0.1-0.5
						c0,0,0.1,0,0.1,0.3c0.1-0.3-0.1-0.3-0.1-0.6c0,0.1,0,0.1,0,0.1c0-0.1,0-0.5,0-0.4l0,0.1c0-0.4,0-1.2-0.1-1.2c0,0,0.1,0,0.1,0.1
						l-0.3-0.7c0.1,0.1,0.2-0.2,0.3,0.1c0-0.1,0-0.2,0-0.4c0,0.1-0.1,0.2-0.1,0.1c0.1-0.2,0-0.2,0.1-0.4c0,0.1-0.1,0-0.1-0.2
						c0,0,0.1,0,0.1,0l-0.1-0.4c0,0.1,0.1,0,0.1-0.1c0,0,0-0.3,0-0.4l0,0.2c0-0.4-0.2-0.4-0.2-0.8c0,0,0.1,0.1,0.2-0.1
						c-0.1-0.1-0.3-0.4-0.3-0.8l0-0.1l0-0.3c0.1,0.2,0.3,0.7,0.3,0.9c0-0.2,0,0,0-0.3c0-0.1,0,0.1,0,0.2l0-0.5
						c-0.1,0-0.1-0.4-0.1-0.4l0.1,0.6c-0.1,0-0.2-0.3-0.2-0.7c0-0.1,0.1,0.1,0.1,0.1c0,0,0-0.4,0-0.4l0,0.2c0-0.2-0.1-0.3,0-0.6
						c0-0.1,0.1-0.3,0-0.3c-0.1,0.1-0.3,0.2-0.4,0.1c0,0,0.1-0.5,0.1-0.6c0.1-0.1,0.1,0.2,0.2,0.1c0,0,0-0.1,0-0.1
						c0-0.1,0.1,0,0-0.2c-0.1,0,0-0.4-0.1-0.1c0-0.2,0-0.2,0-0.4c0,0.1-0.1-0.2-0.2-0.4c0,0,0,0,0.1,0c0-0.1,0-0.2,0-0.3
						c0.2,0,0.4,0,0.7,0c0,0,0.2,0,0.1,0.1c0.1,0,0.1,0,0.2,0c0.2,0.1-0.3,0-0.1,0.1c0,0,0.3-0.1,0.5-0.1c-0.1-0.1-0.4,0-0.5,0
						c0-0.1,0.3-0.2,0.7-0.2c0.3,0,0.1,0.1,0.2,0c0.6,0,0.5-0.1,1-0.1c0.2,0.1,0,0.1,0.1,0.1c-0.3,0-0.4,0-0.6,0l0.2,0
						c-0.1,0-0.3,0-0.3,0c0.2,0,1,0,1.4,0.1c0.1,0,0.2,0,0.2-0.1l-0.1,0c-0.1,0,0.3-0.1,0.1-0.1c0.2,0,0.4-0.1,0.7-0.1l0.1,0.1
						c0,0-0.2,0-0.3,0c0.1,0,0.4,0.1,0.5,0l-0.2,0c0.2,0,0.4-0.1,0.7-0.1c-0.1-0.1-0.1,0-0.2-0.1c0.1,0.1-0.6,0-0.4,0.1
						c-0.2-0.1-0.3,0-0.5-0.1c0,0,0.1,0-0.1,0c0,0,0,0,0,0l0,0l0,0c0,0,0,0,0,0c0,0,0.1,0,0.1,0c-0.1,0-0.4,0-0.5,0.1
						c-0.1,0,0,0,0,0l-0.2,0c0,0-0.3-0.1,0-0.1l-0.3,0c-0.1,0-0.4,0-0.5,0c-0.1,0-0.3,0-0.2,0l-0.4,0l0,0c-0.4,0-0.8,0.1-1.3,0
						c-0.1,0-0.1,0-0.2,0c-0.1,0-0.3,0-0.4,0l-0.1,0c-0.1,0-0.1,0-0.2,0c0,0.3,0,0.8,0,0.8c-0.1,0.2,0,0.8,0,1.1l0.1,0
						c0,0.2,0,0.4,0,0.7l0,0c0,0.2,0,0.6,0,0.9c0,0,0-0.1,0-0.2c-0.1,0.4,0.1,0.9,0,1.2c0,0.1,0,0.2,0,0.2c0,0,0,0,0,0c0,0,0,0,0,0
						c0,0,0,0.1,0,0.1c0,0,0-0.1,0-0.1c0,0.1,0,0.2,0,0.3l0,0c0,0,0,0,0,0c0,0.1,0,0.1,0.1,0c0,0.1,0,0.1,0,0.1
						c-0.1,0.1,0,0.3-0.1,0.4c0,0.1,0,0.5,0.1,0.6c0,0,0,0,0,0c0,0.1,0,0.2,0,0.3L13.7,99l0.1,0.3c0,0.2-0.1,0.2-0.1,0.1
						c0.1,0.4,0,0.3,0.1,0.6l0,0c0,0.1,0.1,0.3,0,0.4c-0.1,0.3,0,1.3-0.1,1.9c0.1-0.1-0.1,0.3,0,0.3c0,0,0,0.1-0.1,0
						c0,0.3,0,0.5,0,0.7c0,0,0-0.1-0.1,0c0,0,0,0.1,0,0.1c0,0,0,0,0-0.1c0,0.3,0.1,0.4,0.2,0.4c0,0.2,0,0.3,0,0.4
						c0,0.1-0.1,0.2-0.1-0.1c0,0.1,0,0.7,0,0.8c0,0,0,0.2,0,0.2c0,0.3,0,0.4,0,0.7l0-0.1c0,0,0,0.1,0,0.1c0.1,0,0.2,0,0.4,0l0,0
						c0.5,0.1,0.2,0,0.7,0l0,0c0-0.1,0.4,0.1,0.7,0l-0.1,0c0.2,0,0.4,0.1,0.6,0.2c0,0-0.1,0-0.1,0c0.4,0.1,0.1-0.1,0.4-0.1
						c0.1,0-0.1,0.1,0.1,0.1c0.1,0,0.6-0.1,0.9,0c-0.1,0-0.1-0.1,0-0.1c0.2,0,0.6,0.1,0.8,0c0,0,0,0,0,0c0.2,0,0.5,0,0.6-0.1
						c0.2,0.2,1-0.1,1,0.1l0.5,0l0,0c0.3,0,0.4,0,0.6-0.1c0.1,0,0,0,0,0c0.5,0,0.5,0,0.9-0.1l0,0c0.1,0,0.7,0.1,1.1,0c0,0,0,0-0.1,0
						c0.5-0.1,1.2,0.1,1.4,0l0.3,0c-0.4,0,0.1-0.1-0.1-0.1c0.2,0,0.5,0.1,0.2,0.1l0,0c-0.1,0.1,0.6,0,0.5,0.1c0.3,0,0.5,0,0.8,0
						c0.3,0,0.7,0,1,0c0-0.4,0-0.8,0-1.1l-0.1,0.1l0-0.3c0-0.1,0.1-0.1,0.1,0.1c0-0.1,0-0.3-0.1-0.3c0-0.4,0.1,0.2,0.1,0l0-0.2l0,0
						c0-0.1-0.1-0.1-0.1-0.4c0-0.2,0-0.1,0-0.1c0,0,0,0,0-0.1l0-0.4l-0.1,0.1c0-0.2,0-0.3-0.1-0.2c0.1-0.2,0-1.3,0.1-1.5
						c0-0.2,0-0.4,0-0.7c0,0.1-0.1,0.1-0.1-0.1c0.1,0.1,0.1-0.4,0.2-0.6c-0.1,0.2,0-0.7-0.1-0.4c0-0.2,0.1,0,0.1-0.2
						c-0.1-0.5,0-1,0-1.6c0,0,0,0.1-0.1,0l0.1-0.3c0-0.1-0.1-0.1,0-0.3c0,0,0,0.1,0,0c0.1-1.1-0.1-2.3,0.1-3.5c0,0.2,0,0.1,0-0.1
						c0,0.1,0,0-0.1,0l0.1-0.5c-0.1-0.1,0-0.5-0.1-0.6l0,0.2c-0.1-0.2-0.2,0.3-0.3,0.3c0.1,0.2-0.1,0.6,0,1c0,0.1,0-0.1-0.1,0
						c0,0.1,0,0.2,0,0.4l0,0c0,0.6,0,0.8-0.1,1.5l0,0c0,0.1,0,0.2,0,0.2c0.1,0.2,0-0.4,0.1-0.3c-0.1,0.2,0,1-0.1,1.1
						c0,0.2,0.1-0.1,0.1,0.2l0,0.1l0,0.1c0,0.1,0,0.2-0.1,0.2c0,0,0-0.1,0-0.1c0,0.2,0,0.5,0,0.6l0-0.2c0,0.6,0,1.3,0,1.9l0,0
						c0,0.4,0,0.4,0,0.8l0,0c0,0.1,0,0.2,0,0.4c0-0.1-0.1,0.2-0.1,0.1c0,0.5,0,0.2,0.1,0.6l0,0.1c0,0.1,0.1,0.1,0.1,0.4
						c0-0.2-0.1,0.2-0.1-0.1c-0.1,0.5,0.1,0.8,0,1c0.1,0.2,0.1-0.4,0.1-0.3c0-0.1,0.1,0.2,0.1,0.4c0,0.2-0.1,0.3-0.1,0.7
						c0,0,0-0.1,0-0.1c0,0.2,0,0.3,0,0.5c0.1,0.1,0,0.2,0.1,0.3l0-0.4c0,0.2,0.1,0.4,0.1,0.8c0,0,0-0.1,0-0.2c0,0.1,0,0.2,0,0.3
						c-0.1,0,0-0.5-0.1-0.7c0,0.1,0.1,0.4,0,0.3c0.1,0.2,0,0.4,0.1,0.7l0,0c0,0.1,0,0.1,0,0.2c0,0,0,0-0.1-0.1c0,0.1,0,0.1,0,0.2
						c0,0-0.1,0-0.1,0c0,0,0.1,0,0.1,0c0,0,0.1,0.1,0.1,0c0,0,0,0,0,0c-0.1,0-0.2,0-0.2,0c-0.1,0-0.2-0.1-0.5-0.1
						c0.1,0,0.3,0,0.2,0.1c-0.1,0-0.3,0-0.3-0.1c-0.4,0,0.1,0-0.1,0.1c-0.1-0.1-0.2,0-0.4,0l0,0c-0.5,0-0.1,0.1-0.5,0.1l0.2-0.1
						l-0.2,0l0-0.1c-0.2,0-0.3,0-0.6,0c0.1,0,0,0.1-0.2,0.1c-0.1,0,0.1,0-0.2,0c0.1,0,0.1-0.1,0.3,0c0,0,0.1,0,0.1,0
						c-0.2,0-0.4,0-0.5,0c0,0,0.1,0,0.1,0l-0.4,0.1c-0.1,0,0,0,0,0c-0.1,0-0.1,0-0.3,0c0,0,0-0.1,0.2-0.1l-0.4,0c0,0-0.2,0-0.2-0.1
						c-0.2,0-0.6,0.1-0.9,0c0,0,0,0-0.1,0c-0.3,0-0.5-0.1-0.9,0l-0.2-0.1c-0.3,0,0.3,0.1-0.2,0.1c-0.3,0-0.1-0.1-0.2-0.1
						c-0.2,0-0.4,0.1-0.7,0.1C19.7,105.5,19.8,105.5,19.9,105.5z M16.6,105.5c0.1,0,0.2,0,0.2,0C16.8,105.5,16.7,105.5,16.6,105.5z
						 M13.9,103.6c0,0,0,0.1,0,0.2C13.9,103.7,13.9,103.7,13.9,103.6z M16.6,92.4L16.6,92.4C16.4,92.4,16.5,92.4,16.6,92.4z
						 M16.9,92.4C16.9,92.4,16.9,92.4,16.9,92.4c0,0-0.1,0-0.1,0C16.8,92.4,16.8,92.4,16.9,92.4z M27.1,103.7L27.1,103.7
						C27.1,103.6,27.1,103.7,27.1,103.7z"/>
					<path d="M14,104.1C14,104.2,14,104.2,14,104.1C14,104.2,14,104.2,14,104.1z"/>
					<path d="M21.9,105.4L21.9,105.4C21.9,105.4,21.9,105.4,21.9,105.4L21.9,105.4z"/>
					<path d="M14,94.1c0,0.1,0,0.1,0,0.1C14,94.2,14,94.2,14,94.1z"/>
					<path d="M18.4,92.4l-0.2,0C18.3,92.4,18.4,92.4,18.4,92.4C18.4,92.4,18.4,92.4,18.4,92.4z"/>
					<path d="M20,92.7C20.1,92.6,20.1,92.6,20,92.7L20,92.7C20,92.6,19.9,92.6,20,92.7z"/>
					<path d="M18.6,92.5c0,0,0.1,0,0.3,0h0C18.9,92.5,18.7,92.5,18.6,92.5z"/>
					<path d="M18.9,92.5c0,0,0.1,0,0.1,0C19,92.5,19,92.5,18.9,92.5z"/>
					<path d="M17.3,92.4C17.3,92.4,17.3,92.4,17.3,92.4C17.4,92.3,16.9,92.4,17.3,92.4z"/>
					<polygon points="18.7,92.6 18.7,92.6 18.6,92.6 					"/>
					<path d="M17.7,92.6l0.2,0c0,0,0,0,0.1,0C17.8,92.6,17.7,92.6,17.7,92.6z"/>
					<path d="M17.9,92.6c0.1,0,0.1,0,0.2,0C18.1,92.6,18,92.6,17.9,92.6z"/>
					<polygon points="18.4,92.7 18.4,92.7 18.2,92.6 					"/>
					<path d="M15.4,92.6l-0.2,0c0,0,0,0,0.1,0C15.4,92.6,15.5,92.6,15.4,92.6z"/>
					<path d="M16.1,92.7c-0.1,0-0.1,0-0.1,0l0,0.1L16.1,92.7z"/>
					<path d="M15.5,92.8C15.4,92.8,15.1,92.8,15.5,92.8C15.4,92.8,15.7,92.8,15.5,92.8z"/>
					<polygon points="13.9,94.4 13.9,94.4 13.8,94.4 					"/>
					<path d="M14.1,97.5c0-0.3-0.1-0.1,0-0.3c0-0.1,0,0.2,0,0.1C14,97.5,14,97.5,14.1,97.5z"/>
					<path d="M14,97.3C14,97.3,14,97.2,14,97.3C14,97.3,14,97.3,14,97.3z"/>
					<polygon points="27.1,93.1 27.2,93 27.1,93.1 					"/>
					<path d="M27.1,92.8L27.1,92.8l0-0.1C27.1,92.7,27.1,92.8,27.1,92.8z"/>
					<path d="M16.1,105.4L16.1,105.4c0,0,0.1,0,0.1,0L16.1,105.4z"/>
					<polygon points="18.5,105.4 18.5,105.4 18.5,105.5 					"/>
					<path d="M20.5,105.3c-0.1,0-0.2,0-0.3,0C20.4,105.3,20.5,105.4,20.5,105.3z"/>
				</g>
			</g>
		</g>
	</g>
</g>
<g class="st0">
	<g>
		<g>
			<g>
				<g>
					<path d="M35,92.4C35,92.4,35,92.4,35,92.4C34.9,92.4,35,92.4,35,92.4z"/>
					<polygon points="34,92.5 34,92.5 33.9,92.5 					"/>
					<path d="M33.1,92.5c0.1,0.1,0.3,0,0.5,0l0,0l0.1-0.1C33.5,92.5,33.3,92.5,33.1,92.5z"/>
					<path d="M32.7,92.3c0,0-0.1,0,0.1,0C32.8,92.3,32.8,92.3,32.7,92.3C32.7,92.3,32.7,92.3,32.7,92.3z"/>
					<path d="M32.7,92.3C32.8,92.3,32.7,92.3,32.7,92.3L32.7,92.3z"/>
					<path d="M32.3,92.4l0.1,0C32.4,92.3,32.3,92.3,32.3,92.4C32.2,92.3,32.2,92.3,32.3,92.4z"/>
					<path d="M32.2,92.4L32.2,92.4C32.2,92.4,32.2,92.4,32.2,92.4z"/>
					<path d="M32.4,92.4l-0.1,0C32.3,92.4,32.3,92.4,32.4,92.4C32.3,92.4,32.3,92.4,32.4,92.4z"/>
					<path d="M32.5,92.4C32.5,92.4,32.6,92.4,32.5,92.4C32.7,92.4,32.7,92.4,32.5,92.4z"/>
					<path d="M33.1,92.6L33.1,92.6l0.2,0C33.2,92.6,33.1,92.5,33.1,92.6z"/>
					<path d="M31.5,92.3C31.5,92.3,31.6,92.4,31.5,92.3l0.1,0C31.6,92.4,31.5,92.3,31.5,92.3z"/>
					<path d="M31.6,92.4l-0.1,0C31.6,92.4,31.6,92.4,31.6,92.4z"/>
					<polygon points="32.2,92.5 32.4,92.4 32.1,92.5 					"/>
					<polygon points="31,92.3 31.1,92.3 31,92.3 					"/>
					<path d="M30.7,92.3C30.7,92.3,30.6,92.3,30.7,92.3c-0.1-0.1-0.2,0-0.3,0C30.5,92.3,30.6,92.3,30.7,92.3z"/>
					<path d="M30.3,92.3c0,0,0.1,0,0.1,0C30.4,92.3,30.3,92.3,30.3,92.3z"/>
					<path d="M31.2,92.4c0,0,0,0-0.1,0L31.2,92.4L31.2,92.4z"/>
					<path d="M31.2,92.4L31.2,92.4c-0.1,0-0.1,0-0.1,0C31.1,92.4,31.1,92.4,31.2,92.4z"/>
					<path d="M31.2,92.4C31.2,92.4,31.2,92.4,31.2,92.4C31.2,92.4,31.2,92.4,31.2,92.4z"/>
					<path d="M31.8,92.5C31.7,92.5,31.6,92.5,31.8,92.5C31.8,92.5,31.7,92.5,31.8,92.5z"/>
					<path d="M31.3,92.5l0.1,0c0,0,0,0,0,0L31.3,92.5z"/>
					<polygon points="31.2,92.5 31.3,92.5 31.2,92.5 					"/>
					<path d="M30.5,92.4c-0.1,0-0.1,0-0.2,0C30.4,92.4,30.5,92.4,30.5,92.4C30.6,92.4,30.6,92.4,30.5,92.4z"/>
					<path d="M30.8,92.4L30.8,92.4C30.8,92.4,30.8,92.4,30.8,92.4z"/>
					<polygon points="29.6,92.4 29.6,92.4 29.6,92.4 					"/>
					<path d="M30.6,92.4c0.1,0,0.1,0,0.1,0C30.7,92.4,30.6,92.4,30.6,92.4C30.6,92.4,30.6,92.4,30.6,92.4z"/>
					<path d="M30.1,92.4c0,0,0.1,0,0.1,0C30.1,92.4,30.1,92.4,30.1,92.4z"/>
					<path d="M30.8,92.4L30.8,92.4C30.8,92.4,30.8,92.4,30.8,92.4z"/>
					<path d="M30.8,92.4C30.8,92.4,30.8,92.4,30.8,92.4C30.8,92.4,30.8,92.4,30.8,92.4L30.8,92.4z"/>
					<path d="M29.3,92.7c0,0,0.2-0.1,0.3,0c0.1,0,0-0.2-0.1-0.2c0,0,0,0-0.1,0.1c0.1,0,0.3,0.1,0.2,0.1c-0.2,0-0.2,0-0.2,0
						c0.1,0-0.2,0.1-0.2,0.1L29.3,92.7C29.3,92.7,29.3,92.7,29.3,92.7z"/>
					<path d="M29.8,92.4L29.8,92.4c0,0-0.1,0-0.1-0.1c-0.1,0-0.1,0-0.1,0L29.8,92.4L29.8,92.4z"/>
					<path d="M30.2,92.4c0,0-0.2,0.1-0.1,0.1c0.2,0,0.1,0,0.2-0.1C30,92.5,30.4,92.4,30.2,92.4c0.1,0,0.1,0,0.2,0
						C30.3,92.4,30.2,92.4,30.2,92.4L30.2,92.4L30.2,92.4L30.2,92.4C30.2,92.4,30.2,92.4,30.2,92.4L30.2,92.4
						C30.2,92.4,30.2,92.4,30.2,92.4C30.1,92.4,30.2,92.4,30.2,92.4L30.2,92.4L30.2,92.4l-0.3,0C30,92.4,30,92.4,30.2,92.4z"/>
					<path d="M31.6,92.6C31.6,92.6,31.6,92.6,31.6,92.6C31.6,92.6,31.5,92.6,31.6,92.6z"/>
					<path d="M31.5,92.6c0,0,0,0,0.1,0c0.1,0,0,0,0,0c0,0,0.1,0,0-0.1l0,0c-0.1,0-0.3-0.1-0.2-0.1C31.4,92.5,31.4,92.6,31.5,92.6z"
						/>
					<path d="M30.8,92.5l-0.2,0l0.1,0l0,0C30.8,92.6,30.8,92.5,30.8,92.5z"/>
					<polygon points="29.5,92.4 29.6,92.3 29.4,92.4 					"/>
					<polygon points="29.2,92.4 29.2,92.4 29.2,92.4 					"/>
					<path d="M31.8,105.5L31.8,105.5C31.9,105.5,31.9,105.5,31.8,105.5z"/>
					<path d="M31.3,105.5L31.3,105.5C31.3,105.5,31.4,105.5,31.3,105.5z"/>
					<path d="M28.2,99.4c0,0.1-0.1,0.2,0,0.2l0,0C28.2,99.5,28.2,99.4,28.2,99.4z"/>
					<path d="M28.5,104.5L28.5,104.5L28.5,104.5C28.5,104.4,28.5,104.4,28.5,104.5z"/>
					<path d="M28.7,104.5l0,0.1C28.7,104.6,28.7,104.6,28.7,104.5z"/>
					<path d="M34.5,105.4L34.5,105.4C34.5,105.4,34.6,105.4,34.5,105.4z"/>
					<path d="M28.3,95c0,0.1,0,0.2,0,0.2C28.3,95.1,28.3,95,28.3,95z"/>
					<path d="M31.6,105.9C31.7,105.9,31.7,105.9,31.6,105.9C31.6,105.9,31.6,105.9,31.6,105.9z"/>
					<path d="M28.2,95.5C28.2,95.5,28.2,95.5,28.2,95.5c0-0.1,0-0.2,0-0.2C28.2,95.3,28.2,95.4,28.2,95.5z"/>
					<path d="M34.8,96.3C34.8,96.3,34.8,96.3,34.8,96.3C34.8,96.3,34.8,96.3,34.8,96.3z"/>
					<path d="M35.2,93.5c0,0,0,0.1,0,0.1C35.2,93.6,35.2,93.5,35.2,93.5z"/>
					<path d="M28.2,93.1C28.2,93.1,28.2,93.1,28.2,93.1L28.2,93.1z"/>
					<path d="M28.4,92.8C28.4,92.8,28.4,92.8,28.4,92.8C28.4,92.8,28.4,92.8,28.4,92.8z"/>
					<path d="M28.5,96.1L28.5,96.1C28.5,96.1,28.5,96.1,28.5,96.1z"/>
					<path d="M28.2,93C28.2,93.1,28.2,93.1,28.2,93C28.2,93.1,28.2,93.1,28.2,93z"/>
					<path d="M28.2,93C28.2,93,28.2,93,28.2,93C28.2,92.9,28.2,93,28.2,93z"/>
					<path d="M28.2,93.2c0,0,0-0.1,0-0.1C28.2,93.1,28.2,93.1,28.2,93.2C28.2,93.2,28.2,93.2,28.2,93.2z"/>
					<path d="M34.9,101.6C34.9,101.6,34.9,101.6,34.9,101.6C34.9,101.5,34.9,101.6,34.9,101.6z"/>
					<polygon points="28.7,101 28.7,101 28.7,101 					"/>
					<path d="M28.7,101.3c-0.1-0.1,0-0.2,0-0.2l-0.1,0.1L28.7,101.3z"/>
					<path d="M33,105.5l-0.2,0c0.2-0.1,0.3,0,0.2-0.1c0,0.1-0.6,0-0.7,0.1l-0.1,0c0,0,0,0,0.1,0c-0.2-0.1-0.2,0.1-0.4,0.1
						c-0.1,0-0.2,0-0.1,0l-0.2,0c-0.1,0,0,0,0,0l-0.3,0l0,0c0,0-0.1,0.1-0.2,0.1c-0.1,0,0,0,0,0l-0.2,0c-0.1,0,0.1-0.1,0.2-0.1
						c-0.2-0.1-0.1,0-0.5,0l0.2,0c-0.1-0.1-0.2,0-0.4-0.1c0,0,0.4,0.1,0.2,0.2c-0.1,0-0.1,0-0.2,0c0,0-0.1,0-0.2,0l0-0.1
						c-0.1,0-0.1,0.1-0.2,0.1c-0.2,0-0.2-0.1-0.2-0.1c-0.2,0,0.2,0.1-0.1,0.1c-0.2,0-0.3,0-0.6,0c-0.1,0,0,0,0-0.1
						c0,0-0.1,0-0.1,0.1c0,0,0,0,0,0c-0.1,0,0,0.1-0.1,0.1c0,0-0.1,0-0.1,0c0-0.1,0.1-0.2,0-0.2c0,0,0,0,0.1,0
						c-0.1-0.3,0-0.2-0.1-0.5l0-0.2c0,0.1-0.1,0-0.2-0.2c0,0.1,0,0.1-0.1,0.1l0-0.3c0,0,0,0,0.1,0l0,0c0-0.1,0.1,0,0.1,0l0,0.1
						c0,0.1,0.1,0.1,0.1,0.1c0,0,0,0,0-0.1c0,0,0,0,0,0c0,0,0,0,0-0.1l0.1-0.1l0,0l0-0.3c-0.1-0.2-0.2-0.5-0.2-0.8
						c0.1,0.1,0.1,0,0.1,0c-0.1,0.1,0,0.3,0,0.5c0-0.1,0-0.1,0-0.1l-0.1-0.4c0.1,0,0-0.1,0.1-0.2c-0.1,0.1-0.1-0.3-0.1-0.4
						c0,0,0.1,0,0.1,0.2c0.1-0.2-0.1-0.3-0.1-0.4c0,0,0,0.1,0,0.1c0-0.1,0-0.3,0-0.3l0,0c0-0.3,0-0.9-0.1-0.9c0,0,0.1,0,0.1,0.1
						l-0.3-0.5c0.1,0,0.2-0.1,0.3,0.1c0-0.1,0-0.2,0-0.3c0,0-0.1,0.1-0.1,0.1c0.1-0.2,0-0.1,0.1-0.3c0,0.1-0.1,0-0.1-0.1
						c0,0,0.1,0,0.1,0l-0.1-0.3c0,0.1,0.1,0,0.1,0c0,0,0-0.2,0-0.3l0,0.1c0-0.3-0.2-0.3-0.2-0.6c0,0,0.1,0.1,0.2-0.1
						c-0.1-0.1-0.3-0.3-0.3-0.6l0-0.1l0-0.2c0.1,0.1,0.3,0.5,0.3,0.7c0-0.1,0,0,0-0.2c0-0.1,0,0.1,0,0.1l0-0.4
						c-0.1,0-0.1-0.3-0.1-0.3l0.1,0.4c-0.1,0-0.2-0.3-0.2-0.5c0-0.1,0.1,0.1,0.1,0c0,0,0-0.3,0-0.3l0,0.1c0-0.2-0.1-0.3,0-0.5
						c0-0.1,0.1-0.2,0-0.2c-0.1,0.1-0.3,0.1-0.4,0.1c0,0,0.1-0.3,0.1-0.4c0.1-0.1,0.1,0.2,0.2,0.1c0,0,0-0.1,0-0.1
						c0-0.1,0.1,0,0-0.1c-0.1,0,0-0.3-0.1-0.1c0-0.1,0-0.2,0-0.3c0,0.1-0.1-0.2-0.2-0.3c0,0,0,0,0.1,0c0-0.3,0-0.5,0-0.7
						c0,0,0-0.2,0.1-0.1c0,0,0-0.1,0-0.2c0.1-0.2,0,0.2,0.1,0.1c0,0-0.1-0.2-0.1-0.3c-0.1,0,0,0.3,0,0.4c-0.1,0-0.2-0.2-0.2-0.5
						c0-0.2,0.1-0.1,0-0.1c0-0.4-0.1-0.4-0.1-0.7c0.1-0.1,0.1,0,0.1,0c0,0.2,0,0.3,0,0.4l0-0.2c0,0.1,0,0.2,0,0.3
						c0-0.1,0-0.7,0.1-1.1c0-0.1,0-0.2-0.1-0.1l0,0.1c0,0.1-0.1-0.2-0.1-0.1c0-0.1-0.1-0.4-0.1-0.6l0,0l0,0c0,0,0,0,0,0
						c0,0,0,0.1,0,0.2c0-0.1,0-0.1,0-0.2c0.1,0,0.2,0,0.3,0l-0.2,0c0.2,0,0.5-0.1,0.6-0.1c-0.1-0.1,0,0-0.2-0.1
						c0.2,0.1-0.7,0-0.4,0.1c-0.1,0-0.2,0-0.3-0.1c0,0.1,0,0.2-0.1,0.4c0,0,0-0.1,0,0.2c0,0,0,0,0,0.1l0,0l0,0c0,0,0,0,0,0
						c0-0.1,0-0.1,0-0.1c0,0.2,0,0.3,0.1,0.4c0,0.1,0,0,0,0l0,0.1c0,0-0.1,0.2-0.1,0l0,0.2c0,0.1,0,0.3,0,0.4c0,0.1,0,0.2,0,0.1
						l0,0.3l0,0c0,0.3,0.1,0.6,0,0.9c0,0.1,0,0.2,0,0.4l0,0c0,0.1,0,0.4,0,0.4c-0.1,0.1,0,0.6,0,0.8l0.1,0c0,0.2,0,0.3,0,0.5l0,0
						c0,0.2,0,0.4,0,0.7c0,0,0-0.1,0-0.1c-0.1,0.3,0.1,0.7,0,0.9c0,0.1,0,0.1,0,0.2c0,0,0,0,0,0l0,0c0,0,0,0.1,0,0.1
						c0,0,0-0.1,0-0.1c0,0.1,0,0.1,0,0.2l0,0c0,0,0,0,0,0c0,0.1,0,0.1,0.1,0c0,0,0,0.1,0,0.1c-0.1,0.1,0,0.2-0.1,0.3
						c0,0.1,0,0.4,0.1,0.4c0,0,0,0,0,0c0,0.1,0,0.2,0,0.3l-0.1,0l0.1,0.2c0,0.1-0.1,0.2-0.1,0.1c0.1,0.3,0,0.2,0.1,0.5l0,0
						c0,0.1,0.1,0.2,0,0.3c-0.1,0.2,0,1-0.1,1.5c0.1-0.1-0.1,0.2,0,0.3c0,0,0,0.1-0.1,0c0,0.3,0,0.4,0,0.6c0,0,0-0.1-0.1,0
						c0,0,0,0.1,0,0.1c0,0,0,0,0-0.1c0,0.3,0.1,0.3,0.2,0.3c0,0.1,0,0.2,0,0.3c0,0-0.1,0.1-0.1,0c0,0.1,0,0.6,0,0.6c0,0,0,0.1,0,0.2
						c0,0.2,0,0.3,0,0.5l0-0.1c0,0,0,0,0,0.1c0.1,0,0.1,0,0.3,0l0,0c0.5,0.1,0.2,0,0.6,0l0,0c0-0.1,0.3,0.1,0.5,0l-0.1,0
						c0.1,0,0.3,0.1,0.4,0.2c0,0,0,0-0.1,0c0.3,0.1,0-0.1,0.3-0.1c0,0-0.1,0.1,0.1,0.1c0.1,0,0.4-0.1,0.7,0c0,0-0.1-0.1,0-0.1
						c0.2,0,0.4,0.1,0.6,0c0,0,0,0,0,0c0.1,0,0.4,0,0.5-0.1c0.1,0.2,0.8-0.1,0.8,0.1l0.4,0l0,0c0.2,0,0.3,0,0.4-0.1c0.1,0,0,0,0,0
						c0.4,0,0.4,0,0.7-0.1l0,0c0,0,0.1,0,0.2,0c0.2,0,0.4,0,0.6,0c0-0.1,0-0.3,0-0.4c0,0,0,0,0,0.1c0-0.1,0-0.2,0-0.2
						c0,0,0-0.1,0-0.2c0-0.1,0-0.2,0-0.3c0-0.2,0-0.4-0.1-0.4l0-0.3c0,0.3-0.1,0-0.1,0.1c0-0.1,0.1-0.3,0.1-0.2l0,0
						c0.1,0.1,0-0.4,0.1-0.4c0-0.7,0-1.3,0.1-1.9l-0.1,0.1l0-0.2c0-0.1,0.1-0.1,0.1,0.1c0-0.1,0-0.3-0.1-0.3c0-0.3,0.1,0.1,0.1,0
						l0-0.1l0,0c0-0.1-0.1-0.1-0.1-0.3c0-0.1,0-0.1,0-0.1c0,0,0,0,0-0.1l0-0.3l-0.1,0.1c0-0.1,0-0.3-0.1-0.1c0.1-0.2,0-1,0.1-1.1
						c0-0.2,0-0.3,0-0.5c0,0.1-0.1,0.1-0.1-0.1c0.1,0.1,0.1-0.3,0.2-0.5c-0.1,0.1,0-0.5-0.1-0.3c0-0.1,0.1,0,0.1-0.1
						c-0.1-0.4,0-0.8,0-1.2c0,0,0,0.1-0.1,0l0.1-0.2c0-0.1-0.1-0.1,0-0.2c0,0,0,0.1,0,0c0.1-0.9-0.1-1.7,0.1-2.6c0,0.1,0,0,0-0.1
						c0,0.1,0,0-0.1,0l0.1-0.4c-0.1-0.1,0-0.4-0.1-0.4l0,0.1c-0.1-0.2-0.2,0.2-0.3,0.2c0.1,0.2-0.1,0.4,0,0.7c0,0.1,0-0.1-0.1,0
						c0,0.1,0,0.2,0,0.3l0,0c0,0.4,0,0.6-0.1,1.1l0,0c0,0.1,0,0.1,0,0.2c0.1,0.1,0-0.3,0.1-0.2c-0.1,0.1,0,0.8-0.1,0.9
						c0,0.2,0.1,0,0.1,0.1l0,0l0,0c0,0.1,0,0.2-0.1,0.2c0,0,0-0.1,0-0.1c0,0.1,0,0.4,0,0.4l0-0.2c0,0.5,0,1,0,1.4l0,0
						c0,0.3,0,0.3,0,0.6l0,0c0,0.1,0,0.2,0,0.3c0-0.1-0.1,0.2-0.1,0.1c0,0.4,0,0.2,0.1,0.4l0,0.1c0,0.1,0.1,0.1,0.1,0.3
						c0-0.1-0.1,0.1-0.1-0.1c-0.1,0.4,0.1,0.6,0,0.7c0.1,0.2,0.1-0.3,0.1-0.2c0-0.1,0.1,0.1,0.1,0.3c0,0.1-0.1,0.2-0.1,0.5l0-0.1
						c0,0.1,0,0.2,0,0.4c0.1,0.1,0,0.2,0.1,0.2l0-0.3c0,0.2,0.1,0.3,0.1,0.6c0,0,0-0.1,0-0.2c0,0.1,0,0.1,0,0.2
						c-0.1,0,0-0.3-0.1-0.5c0,0.1,0.1,0.3,0,0.2c0.1,0.1,0,0.3,0.1,0.5l0,0c0,0,0,0.1,0,0.2l-0.1-0.1c0.1,0.2,0,0.3,0,0.5
						c0-0.3,0.1-0.1,0.1-0.2c0.1,0.4-0.1,0.2-0.1,0.7c0-0.1,0-0.2,0.1-0.1c0,0.1,0,0.2-0.1,0.3c0,0.3,0,0,0.1,0.1
						c-0.1,0.1,0,0.2,0,0.3l0,0c0,0.4,0.1,0.1,0.1,0.4l-0.1-0.1l0,0.2l-0.1,0c0,0.2,0,0.2,0,0.4c0,0,0.1,0,0.1,0.2
						c0,0.1,0-0.1,0,0.2c0-0.1-0.1-0.1,0-0.2c0,0,0,0,0-0.1c0,0.1,0,0.3,0,0.4c0,0,0-0.1,0-0.1l0.1,0.3c0,0.1,0,0,0,0
						c0,0.1,0,0.1,0,0.2c0,0-0.1,0-0.1-0.2c0,0.1,0,0.2,0,0.2c0,0,0,0-0.1,0c0,0,0,0,0,0c0,0,0,0,0,0c0,0,0,0-0.1,0c0,0,0,0-0.1,0
						c-0.2,0-0.4-0.1-0.7,0l-0.1-0.1c-0.2,0,0.2,0.1-0.1,0.1c-0.2,0-0.1-0.1-0.2-0.1c-0.1,0-0.3,0.1-0.5,0.1
						C32.9,105.5,33,105.5,33,105.5z M30.6,105.5c0,0,0.1,0,0.2,0C30.7,105.5,30.7,105.5,30.6,105.5z M28.6,104.1c0,0,0,0.1,0,0.2
						C28.6,104.2,28.6,104.2,28.6,104.1z M28.3,93.8L28.3,93.8C28.2,93.9,28.3,93.9,28.3,93.8z M28.3,93.6
						C28.3,93.6,28.3,93.6,28.3,93.6c0,0,0,0.1,0,0.1C28.3,93.7,28.3,93.7,28.3,93.6z M35.2,100.9L35.2,100.9
						C35.2,100.9,35.2,100.9,35.2,100.9z"/>
					<path d="M28.7,104.5C28.7,104.5,28.6,104.6,28.7,104.5C28.6,104.6,28.7,104.6,28.7,104.5z"/>
					<polygon points="34.5,105.4 34.5,105.4 34.5,105.4 					"/>
					<path d="M28.7,97C28.7,97,28.7,97.1,28.7,97C28.7,97.1,28.7,97.1,28.7,97z"/>
					<path d="M28.5,92.4l-0.2,0C28.4,92.4,28.4,92.4,28.5,92.4C28.5,92.4,28.4,92.4,28.5,92.4z"/>
					<path d="M29.9,92.7C29.9,92.6,29.9,92.6,29.9,92.7L29.9,92.7C29.9,92.6,29.8,92.6,29.9,92.7z"/>
					<path d="M28.8,92.5c0,0,0.1,0,0.2,0c0,0,0,0,0,0C29,92.5,28.9,92.5,28.8,92.5z"/>
					<path d="M29,92.5C29.1,92.5,29.1,92.5,29,92.5C29.1,92.5,29.1,92.5,29,92.5z"/>
					<path d="M28.3,93.3C28.3,93.3,28.2,93.3,28.3,93.3C28.2,93.2,28.3,93.6,28.3,93.3z"/>
					<polygon points="28.9,92.6 28.8,92.6 28.8,92.6 					"/>
					<path d="M28.5,93l0-0.2c0,0,0,0,0-0.1C28.5,92.9,28.4,93,28.5,93z"/>
					<path d="M28.5,92.8c0-0.1,0-0.1,0-0.1C28.4,92.7,28.5,92.7,28.5,92.8z"/>
					<polygon points="28.7,92.7 28.6,92.7 28.5,92.6 					"/>
					<path d="M28.4,94.7l0,0.2C28.5,94.9,28.5,94.9,28.4,94.7C28.5,94.7,28.5,94.7,28.4,94.7z"/>
					<path d="M28.6,94.2C28.6,94.2,28.6,94.2,28.6,94.2L28.6,94.2L28.6,94.2z"/>
					<path d="M28.6,94.7C28.6,94.7,28.6,94.9,28.6,94.7C28.6,94.7,28.6,94.5,28.6,94.7z"/>
					<polygon points="28.5,97.3 28.5,97.2 28.4,97.2 					"/>
					<path d="M28.8,99.5c0-0.2-0.1,0,0-0.2c0,0,0,0.1,0,0.1C28.7,99.5,28.7,99.6,28.8,99.5z"/>
					<path d="M28.7,99.4C28.7,99.4,28.7,99.4,28.7,99.4C28.7,99.4,28.7,99.4,28.7,99.4z"/>
					<polygon points="35.3,93 35.3,92.9 35.3,93 					"/>
					<path d="M35.2,92.8L35.2,92.8l0-0.1C35.2,92.7,35.2,92.7,35.2,92.8z"/>
					<path d="M30.2,105.4L30.2,105.4c0,0,0,0,0.1,0L30.2,105.4z"/>
					<polygon points="32,105.4 32,105.4 32,105.5 					"/>
					<path d="M33.5,105.3c-0.1,0-0.1,0-0.2,0C33.4,105.3,33.5,105.4,33.5,105.3z"/>
				</g>
			</g>
		</g>
	</g>
</g>
<g>
	<path d="M47.5,80.3v1.3h-0.6c0-1-0.5-2-2-2h-0.3c-0.3,0-0.5,0.3-0.5,0.5v8.7c0,0.3,0.3,0.5,0.5,0.5v0.3h-3.2v-0.3
		c0.3,0,0.5-0.3,0.5-0.5v-8.7c0-0.3-0.3-0.5-0.5-0.5h-0.3c-1.4,0-2,1-2,2h-0.6v-1.3c0-0.5,0-0.9,0-1.1h2.6h6.4V80.3z"/>
	<path d="M57.8,83.3c-0.3,0-0.4,0.3-0.5,0.5L55,89.7h-0.8l-1.3-3.2l-1.3,3.2h-0.8l-2.3-5.8c-0.1-0.2-0.3-0.5-0.5-0.5V83h2.3l1.7,4.1
		l0.6-1.5l-0.7-1.8c-0.1-0.2-0.3-0.5-0.5-0.5V83h3.1v0.3c-0.2,0-0.4,0.2-0.5,0.4l1.4,3.4L57,83h0.8V83.3z"/>
	<path d="M65.6,86.3c0,2-1.5,3.5-3.6,3.5s-3.6-1.5-3.6-3.5c0-2,1.5-3.5,3.6-3.5S65.6,84.4,65.6,86.3z M63.5,86.3
		c0-1.8-0.7-3.2-1.5-3.2s-1.5,1.4-1.5,3.2c0,1.8,0.7,3.2,1.5,3.2S63.5,88.1,63.5,86.3z"/>
</g>
<g>
	<path d="M76.6,89.8h-4.9v-0.3h1c0.2,0,0.5-0.2,0.5-0.5v-6.5l-1,1.3h-0.7v-0.3c0.2,0,0.4-0.3,0.6-0.5l0.3-0.3l1.9-2.5h0.9v8.8
		c0,0.2,0.2,0.5,0.5,0.5h1V89.8z"/>
</g>
<g>
	<path d="M85.4,102.8c-1.1,0-2,0-3,0v0h-2.8v-0.3c0.2,0,0.2-0.1,0.3-0.3l0.8-1.5l2.5-4.4c0.2-0.3,0.5-0.8,0.5-1.5
		c0-1.2-0.9-1.5-1.3-1.5c-1.6,0-2,2.1-2,3.4h-0.5v-3.3c0.9-0.3,1.5-0.5,2.5-0.5c1.4,0,2.9,0.5,2.9,2.1c0,0.7-0.1,1.2-0.5,1.9l-3,5.4
		h0.9c1.5-0.2,2.3-1.7,2.3-3h0.5V102.8z"/>
</g>
<g>
	<g>
		<path d="M94.6,92.4c3.1,0,5.8,1.3,5.8,5.2s-2.6,5.2-5.8,5.2h-3.8v-0.3c0.3,0,0.5-0.3,0.5-0.5v-8.7c0-0.3-0.3-0.5-0.5-0.5v-0.3
			H94.6z M98.1,97.6c0-3.7-1.8-4.9-3.4-4.9h-0.1c-0.1,0-0.2,0-0.5,0c-0.3,0-0.5,0.3-0.5,0.5v8.7c0,0.3,0.3,0.5,0.5,0.5h0.5
			c0,0,0,0,0.1,0C96.2,102.4,98.1,101.2,98.1,97.6z"/>
		<path d="M103.8,101.9c0,0.3,0.3,0.5,0.5,0.5v0.3h-2.5V97c0-0.3-0.3-0.5-0.5-0.5v-0.3h2.5V101.9z M101.6,93.9c0-0.6,0.5-1,1-1
			c0.6,0,1,0.5,1,1c0,0.6-0.5,1-1,1C102,94.9,101.6,94.5,101.6,93.9z"/>
		<path d="M115.2,101.9c0,0.3,0.3,0.5,0.5,0.5v0.3h-2.5v-3v-1.9c0-0.7-0.4-1.1-1.1-1.1c-0.4,0-0.8,0.2-1,0.6c0,0.2,0.1,0.4,0.1,0.5
			v4.1c0,0.3,0.3,0.5,0.5,0.5v0.3h-2.5v-3v-1.9c0-0.7-0.4-1.1-1.1-1.1c-0.4,0-0.7,0.2-1,0.5v4.7c0,0.3,0.3,0.5,0.5,0.5v0.3h-2.5V97
			c0-0.3-0.3-0.5-0.5-0.5v-0.3h2.5v0.6c0.4-0.4,1.1-0.8,1.9-0.8s1.5,0.3,1.9,1c0.4-0.5,1.2-1,2.1-1c1,0,2.1,0.5,2.1,1.9V101.9z"/>
		<path d="M123.3,99.7c0.1,0.3,0.1,0.5,0.1,0.7c0,1.6-1.5,2.5-3.4,2.5c-2.1,0-3.6-1.5-3.6-3.5c0-2.1,1.5-3.5,3.8-3.5
			c1.5,0,2.9,0.7,2.9,2.2c0,2.7-4.8,1.1-4.5,2.9c0.2,0.9,0.6,1.5,1.3,1.6c1.1,0.1,1.7-1.2,1.4-2.2L123.3,99.7z M118.1,98.3
			L118.1,98.3L118.1,98.3z M118.5,99.4c0,0.3,0,0.5,0,0.8c0.5-0.7,2.9-1.1,2.9-2.5c0-0.7-0.4-1.4-1.2-1.4
			C119.1,96.3,118.5,97.5,118.5,99.4z"/>
		<path d="M130.7,101.9c0,0.3,0.3,0.5,0.5,0.5v0.3h-2.5v-3v-1.9c0-0.7-0.4-1.1-1.1-1.1c-0.5,0-1,0.4-1.2,0.9v4.3
			c0,0.3,0.3,0.5,0.5,0.5v0.3h-2.5V97c0-0.3-0.3-0.5-0.5-0.5v-0.3h2.5V97c0.4-0.5,1.2-1,2.1-1c1,0,2.1,0.5,2.1,1.9V101.9z"/>
		<path d="M137.6,100.8c0,1.5-1.1,2.1-2.9,2.1c-0.9,0-1.9-0.1-3-0.2v-2.4h0.6c0,1,0.9,2.2,2.3,2.2c0.7,0,1.3-0.6,1.3-1.2
			c0-1.7-4.2-1.1-4.2-3.5c0-1.2,1-1.9,2.7-1.9c0.9,0,1.5,0.1,2.6,0.2v2.4h-0.6c0-1-0.5-2.2-2-2.2c-0.4,0-1.1,0.2-1.1,1
			C133.4,98.6,137.6,98.5,137.6,100.8z"/>
		<path d="M140.6,101.9c0,0.3,0.3,0.5,0.5,0.5v0.3h-2.5V97c0-0.3-0.3-0.5-0.5-0.5v-0.3h2.5V101.9z M138.4,93.9c0-0.6,0.5-1,1-1
			c0.6,0,1,0.5,1,1c0,0.6-0.5,1-1,1C138.8,94.9,138.4,94.5,138.4,93.9z"/>
		<path d="M148.9,99.5c0,2-1.5,3.5-3.6,3.5c-2.1,0-3.6-1.5-3.6-3.5s1.5-3.5,3.6-3.5C147.4,95.9,148.9,97.5,148.9,99.5z M146.8,99.5
			c0-1.8-0.7-3.2-1.5-3.2c-0.8,0-1.5,1.4-1.5,3.2s0.7,3.2,1.5,3.2C146.1,102.6,146.8,101.2,146.8,99.5z"/>
		<path d="M156.2,101.9c0,0.3,0.3,0.5,0.5,0.5v0.3h-2.5v-3v-1.9c0-0.7-0.4-1.1-1.1-1.1c-0.5,0-1,0.4-1.2,0.9v4.3
			c0,0.3,0.3,0.5,0.5,0.5v0.3H150V97c0-0.3-0.3-0.5-0.5-0.5v-0.3h2.5V97c0.4-0.5,1.2-1,2.1-1c1,0,2.1,0.5,2.1,1.9V101.9z"/>
		<path d="M163.1,100.8c0,1.5-1.1,2.1-2.9,2.1c-0.9,0-1.9-0.1-3-0.2v-2.4h0.6c0,1,0.9,2.2,2.3,2.2c0.7,0,1.3-0.6,1.3-1.2
			c0-1.7-4.2-1.1-4.2-3.5c0-1.2,1-1.9,2.7-1.9c0.9,0,1.5,0.1,2.6,0.2v2.4H162c0-1-0.5-2.2-2-2.2c-0.4,0-1.1,0.2-1.1,1
			C159,98.6,163.1,98.5,163.1,100.8z"/>
	</g>
</g>
<g class="st0">
	<g>
		<g>
			<g>
				<g>
					<path d="M67,103.1C67,103.1,67,103.1,67,103.1C67.1,103.1,67,103.1,67,103.1z"/>
					<polygon points="67.6,102.4 67.6,102.4 67.6,102.3 					"/>
					<path d="M68.2,101.8c-0.1,0-0.2,0.2-0.3,0.3l0,0l0,0.1C67.9,102.1,68.1,101.9,68.2,101.8z"/>
					<path d="M68.6,101.6C68.6,101.6,68.6,101.5,68.6,101.6C68.5,101.7,68.5,101.7,68.6,101.6C68.5,101.7,68.6,101.6,68.6,101.6z"/>
					<path d="M68.5,101.7C68.5,101.7,68.6,101.6,68.5,101.7L68.5,101.7z"/>
					<path d="M68.8,101.4L68.8,101.4C68.8,101.5,68.8,101.4,68.8,101.4C68.9,101.3,68.9,101.3,68.8,101.4z"/>
					<path d="M68.8,101.3L68.8,101.3C68.8,101.3,68.8,101.3,68.8,101.3z"/>
					<path d="M68.7,101.4l0.1-0.1C68.8,101.3,68.8,101.3,68.7,101.4C68.8,101.3,68.8,101.4,68.7,101.4z"/>
					<path d="M68.7,101.5C68.6,101.5,68.6,101.5,68.7,101.5C68.5,101.6,68.5,101.6,68.7,101.5z"/>
					<path d="M68.1,101.7L68.1,101.7l-0.1,0.1C68.1,101.8,68.2,101.7,68.1,101.7z"/>
					<path d="M69.3,100.9C69.3,100.9,69.3,100.9,69.3,100.9l-0.1,0.1C69.2,100.9,69.3,100.9,69.3,100.9z"/>
					<path d="M69.3,100.9l0.1-0.1C69.2,100.9,69.2,100.9,69.3,100.9z"/>
					<polygon points="68.8,101.2 68.7,101.4 68.8,101.2 					"/>
					<polygon points="69.7,100.6 69.7,100.6 69.7,100.5 					"/>
					<path d="M69.9,100.3C69.9,100.4,70,100.3,69.9,100.3c0.1,0,0.2-0.1,0.2-0.2C70,100.2,70,100.3,69.9,100.3z"/>
					<path d="M70.1,100.1c0,0,0,0.1-0.1,0.1C70.1,100.1,70.1,100.1,70.1,100.1z"/>
					<path d="M69.5,100.6c0,0,0,0,0.1,0L69.5,100.6C69.5,100.6,69.5,100.6,69.5,100.6z"/>
					<path d="M69.5,100.6L69.5,100.6C69.6,100.6,69.6,100.5,69.5,100.6C69.6,100.5,69.6,100.6,69.5,100.6z"/>
					<path d="M69.5,100.6C69.5,100.6,69.5,100.6,69.5,100.6C69.5,100.6,69.5,100.6,69.5,100.6z"/>
					<path d="M69.1,101c0-0.1,0.1-0.2,0-0.1C69,100.9,69.1,100.9,69.1,101z"/>
					<path d="M69.4,100.6l-0.1,0.1c0,0,0,0,0,0L69.4,100.6z"/>
					<polygon points="69.4,100.6 69.4,100.6 69.4,100.6 					"/>
					<path d="M69.9,100.2c0-0.1,0.1-0.1,0.1-0.2C70,100.1,70,100.1,69.9,100.2C69.9,100.2,69.9,100.3,69.9,100.2z"/>
					<path d="M69.7,100.4C69.7,100.4,69.7,100.4,69.7,100.4C69.7,100.4,69.7,100.4,69.7,100.4z"/>
					<path d="M70.6,99.5C70.6,99.5,70.6,99.5,70.6,99.5C70.6,99.5,70.6,99.5,70.6,99.5L70.6,99.5z"/>
					<path d="M69.9,100.2C69.8,100.2,69.8,100.3,69.9,100.2C69.8,100.3,69.9,100.2,69.9,100.2C69.9,100.2,69.9,100.2,69.9,100.2z"/>
					<path d="M70.3,99.9C70.2,99.9,70.2,99.9,70.3,99.9C70.2,99.9,70.3,99.9,70.3,99.9z"/>
					<path d="M69.8,100.4C69.8,100.4,69.8,100.4,69.8,100.4C69.8,100.4,69.8,100.4,69.8,100.4z"/>
					<path d="M69.8,100.4C69.8,100.3,69.8,100.3,69.8,100.4C69.8,100.3,69.8,100.4,69.8,100.4C69.8,100.4,69.8,100.4,69.8,100.4z"/>
					<path d="M70.5,99.2c0,0-0.1,0.2-0.2,0.2c-0.1,0.1,0.1,0.1,0.2,0.1c0,0,0,0,0.1-0.1c0,0-0.2,0.2-0.2,0.1
						c0.1-0.1,0.1-0.1,0.2-0.1c-0.1,0,0.1-0.2,0-0.2L70.5,99.2C70.5,99.2,70.6,99.2,70.5,99.2z"/>
					<path d="M70.4,99.7L70.4,99.7c0,0,0.1,0,0.1-0.1c0.1-0.1,0.1-0.1,0-0.1L70.4,99.7L70.4,99.7z"/>
					<path d="M70.2,99.9c0-0.1,0.1-0.2,0-0.1c-0.1,0.1-0.1,0.1-0.1,0.2C70.2,99.8,70,100,70.2,99.9c0,0-0.1,0.1-0.1,0.1
						C70.1,100,70.1,100,70.2,99.9C70.2,100,70.2,100,70.2,99.9L70.2,99.9C70.2,100,70.2,100,70.2,99.9C70.2,100,70.2,100,70.2,99.9
						C70.2,100,70.2,100,70.2,99.9C70.2,100,70.2,99.9,70.2,99.9C70.2,99.9,70.2,99.9,70.2,99.9C70.2,100,70.2,100,70.2,99.9
						C70.2,100,70.2,100,70.2,99.9l0.2-0.2C70.3,99.8,70.2,99.8,70.2,99.9z"/>
					<path d="M69.1,100.7C69.1,100.7,69.1,100.7,69.1,100.7C69.1,100.7,69.1,100.7,69.1,100.7z"/>
					<path d="M69.2,100.6C69.2,100.7,69.2,100.7,69.2,100.6C69.1,100.8,69.1,100.7,69.2,100.6c-0.1,0.1-0.2,0.2-0.1,0.1L69.2,100.6
						c0,0,0.2,0,0.2,0C69.3,100.6,69.3,100.6,69.2,100.6z"/>
					<path d="M69.7,100.3l0.1-0.2l-0.1,0.1l0,0C69.6,100.3,69.7,100.3,69.7,100.3z"/>
					<polygon points="70.6,99.5 70.6,99.6 70.7,99.5 					"/>
					<polygon points="70.8,99.3 70.8,99.4 70.9,99.3 					"/>
					<path d="M81.7,87.8L81.7,87.8C81.7,87.7,81.7,87.8,81.7,87.8z"/>
					<path d="M81.3,88.1L81.3,88.1C81.3,88.1,81.3,88.1,81.3,88.1z"/>
					<path d="M75.7,94.5c0.1,0,0.2-0.1,0.2-0.1l-0.1,0C75.7,94.4,75.7,94.4,75.7,94.5z"/>
					<path d="M78.8,90.9C78.8,90.9,78.8,90.9,78.8,90.9C78.8,91,78.8,91,78.8,90.9C78.8,91,78.8,91,78.8,90.9z"/>
					<path d="M78.8,90.8l0.1-0.1C78.8,90.7,78.8,90.7,78.8,90.8z"/>
					<path d="M83.4,86L83.4,86C83.3,86,83.4,85.9,83.4,86z"/>
					<path d="M72.8,97.3c0.1,0,0.1-0.1,0.2-0.1C72.9,97.2,72.8,97.2,72.8,97.3z"/>
					<path d="M81.9,88.2C81.9,88.2,81.9,88.2,81.9,88.2C81.9,88.2,81.8,88.2,81.9,88.2z"/>
					<path d="M73.1,97C73.1,97,73.1,97,73.1,97c-0.1,0.1-0.1,0.1-0.2,0.2C73,97.1,73.1,97.1,73.1,97z"/>
					<path d="M89.9,79.6C89.9,79.5,89.9,79.5,89.9,79.6C89.9,79.5,89.9,79.5,89.9,79.6z"/>
					<path d="M92.1,78C92,78,92,78,92.1,78C92,78.1,92,78,92.1,78z"/>
					<path d="M71.6,98.6C71.6,98.6,71.6,98.6,71.6,98.6L71.6,98.6z"/>
					<path d="M71.3,98.6C71.3,98.6,71.3,98.6,71.3,98.6C71.3,98.6,71.3,98.6,71.3,98.6z"/>
					<path d="M73.4,96.4C73.4,96.4,73.4,96.4,73.4,96.4C73.4,96.4,73.4,96.4,73.4,96.4z"/>
					<path d="M71.5,98.6C71.6,98.6,71.6,98.6,71.5,98.6C71.6,98.6,71.6,98.6,71.5,98.6z"/>
					<path d="M71.6,98.6C71.5,98.6,71.5,98.6,71.6,98.6C71.5,98.6,71.5,98.6,71.6,98.6z"/>
					<path d="M71.7,98.5C71.6,98.5,71.6,98.5,71.7,98.5C71.6,98.5,71.6,98.5,71.7,98.5C71.6,98.5,71.6,98.5,71.7,98.5z"/>
					<path d="M86.5,83.1C86.5,83.1,86.5,83.1,86.5,83.1C86.5,83,86.5,83,86.5,83.1z"/>
					<polygon points="76.5,93 76.4,93 76.5,93 					"/>
					<path d="M76.6,92.9c0,0.1-0.1,0.1-0.1,0.2l0.1,0L76.6,92.9z"/>
					<path d="M82.4,87l-0.1,0.1c0.1-0.2,0.2-0.3,0.1-0.2c0.1,0.1-0.4,0.4-0.3,0.5l-0.1,0c0,0,0,0,0,0c-0.2,0.1,0,0.2-0.2,0.3
						c-0.1,0.1-0.1,0.1-0.1,0l-0.1,0.2c0,0,0,0,0,0l-0.2,0.2l0,0c0,0-0.1,0.1-0.1,0.2c-0.1,0,0,0,0,0l-0.1,0.1c-0.1,0,0-0.1,0.1-0.2
						c-0.2,0-0.1,0.1-0.4,0.3l0.1-0.1c-0.1,0-0.2,0.1-0.3,0.2c0,0,0.3-0.2,0.2,0c0,0-0.1,0.1-0.1,0.2c0,0-0.1,0-0.2,0.1l0-0.1
						c-0.1,0.1,0,0.1-0.1,0.2c-0.1,0.1-0.2,0.1-0.2,0.1c-0.2,0.2,0.2-0.1,0,0.1c-0.1,0.1-0.2,0.2-0.4,0.4c-0.1,0.1,0,0-0.1,0l0,0.1
						c0,0,0,0,0,0c-0.1,0.1,0,0.1-0.1,0.2c0,0.1-0.3,0.2-0.4,0.3c0,0,0,0,0-0.1c-0.1,0.2-0.1,0.2-0.2,0.4l-0.2,0.1
						c0.1-0.1,0,0.1,0,0.2c0.1,0,0.1,0,0.1,0l-0.1,0.2c0,0,0,0,0-0.1c0,0,0,0,0,0c-0.1,0-0.1,0-0.1-0.1c0,0,0.1,0,0.1,0
						c0-0.1,0-0.1,0-0.2c0,0,0,0,0,0.1c0,0,0,0,0,0c0,0,0,0,0,0.1l-0.1,0l0,0l-0.3,0.2c-0.1,0.2-0.2,0.4-0.4,0.7
						c0-0.1,0-0.1-0.1-0.1c0.1,0,0.2-0.2,0.3-0.3c-0.1,0.1-0.1,0-0.1,0l-0.2,0.3c0,0-0.1,0-0.2,0.1c0.1,0-0.1,0.2-0.2,0.3
						c0,0,0-0.1,0.1-0.2c-0.2,0.1-0.1,0.2-0.3,0.3c0,0,0,0,0-0.1c0,0.1-0.2,0.2-0.2,0.2l0,0c-0.2,0.2-0.6,0.6-0.5,0.7
						c0,0,0-0.1,0-0.1l-0.1,0.5c0-0.1-0.3-0.1-0.1-0.3c-0.1,0-0.1,0.1-0.2,0.2c0,0,0.2,0,0.1,0c-0.2,0.1-0.1,0-0.3,0.1
						c0.1,0,0.1,0.1,0,0.2c0,0-0.1-0.1-0.1-0.1l-0.1,0.3c0-0.1-0.1-0.1-0.1-0.1c0,0-0.2,0.2-0.2,0.2l0.1-0.1
						c-0.2,0.2-0.1,0.3-0.3,0.5c0,0,0-0.2-0.2-0.1c0,0.1,0,0.4-0.2,0.6l-0.1,0l-0.1,0.2c0-0.1,0.1-0.5,0.2-0.7c-0.1,0.1,0,0-0.2,0.1
						c-0.1,0,0-0.1,0.1-0.1l-0.3,0.2c0.1,0-0.2,0.2-0.1,0.3l0.2-0.3c0.1,0,0,0.3-0.2,0.5c-0.1,0,0-0.1-0.1-0.1c0,0-0.1,0.2-0.2,0.2
						l0.1-0.1c-0.1,0.1-0.1,0.2-0.3,0.3c0,0-0.2,0.1-0.2,0.1c0.1,0,0.3,0.1,0.3,0.2c0,0-0.3,0.2-0.4,0.2c-0.1,0,0-0.2-0.1-0.2
						c0,0,0,0.1,0,0.1c-0.1,0,0-0.1-0.1,0c0,0.1-0.2,0.2,0,0.1c-0.1,0.1-0.1,0.1-0.2,0.2c0.1,0,0,0.2-0.1,0.3c0,0,0,0-0.1,0
						c-0.2,0.2-0.3,0.3-0.5,0.5c0,0-0.1,0.1-0.1,0c0,0,0,0.1-0.1,0.1c-0.2,0.1,0.1-0.1,0-0.1c0,0-0.1,0.2-0.2,0.3
						c0.1,0,0.2-0.2,0.3-0.3c0.1,0.1,0,0.3-0.2,0.5c-0.1,0.2-0.1,0-0.1,0.1c-0.3,0.3-0.1,0.3-0.4,0.5c-0.1,0.1-0.1-0.1-0.1-0.1
						c0.1-0.1,0.2-0.2,0.3-0.3l-0.1,0.1c0-0.1,0.1-0.1,0.2-0.2c-0.1,0-0.5,0.5-0.7,0.7c0,0.1-0.1,0.1,0,0.1l0.1-0.1
						c0.1,0-0.1,0.2,0,0.1c-0.1,0.1-0.1,0.3-0.3,0.4l-0.1,0c0,0,0.1-0.1,0.1-0.1c0,0.1-0.3,0.1-0.3,0.3l0.1-0.1
						c-0.1,0.1-0.1,0.3-0.3,0.4c0.1,0,0,0,0.2-0.1c-0.1,0,0.3-0.3,0.1-0.2c0.1,0,0.2-0.1,0.3-0.2c0,0-0.1,0,0-0.1c0,0,0,0,0,0
						c0,0,0,0,0,0c0,0,0,0,0,0c0,0,0,0,0,0c0,0-0.1,0-0.1,0c0-0.1,0.2-0.2,0.2-0.3c0.1-0.1,0,0,0,0l0.1-0.1c0,0,0.2-0.1,0.1,0.1
						l0.1-0.1c0.1-0.1,0.2-0.1,0.2-0.2c0.1-0.1,0.1-0.2,0.1-0.1l0.2-0.2l0,0c0.2-0.2,0.3-0.4,0.6-0.6c0.1-0.1,0.1-0.1,0.2-0.2l0,0
						c0.1-0.1,0.3-0.2,0.3-0.3c0.2,0,0.4-0.4,0.6-0.5l0,0c0.1-0.1,0.2-0.2,0.3-0.3l0,0c0.1-0.1,0.3-0.3,0.5-0.4c0,0,0,0.1-0.1,0.1
						c0.3-0.1,0.4-0.5,0.6-0.6c0-0.1,0.1-0.1,0.1-0.1c0,0,0,0,0,0c0,0,0,0,0,0c0,0,0.1,0,0.1,0c0,0-0.1,0-0.1,0c0,0,0.1-0.1,0.1-0.2
						l0.1,0c0,0,0,0,0,0c0.1,0,0-0.1,0-0.1c0,0,0-0.1,0-0.1c0.1,0,0.1-0.2,0.2-0.2c0-0.1,0.2-0.3,0.2-0.4c0,0,0,0,0,0
						c0.1-0.1,0.1-0.1,0.2-0.2l0.1,0l0.1-0.2c0.1-0.1,0.2-0.1,0.1,0c0.1-0.2,0.1-0.2,0.2-0.4l0,0c0.1-0.1,0.1-0.2,0.2-0.2
						c0.2-0.1,0.6-0.6,1-0.9c-0.1,0,0.2-0.1,0.1-0.2c0,0,0.1,0,0.1,0c0.1-0.2,0.3-0.2,0.3-0.4c0,0,0,0.1,0,0.1c0,0,0-0.1,0.1-0.1
						c0,0,0,0,0,0.1c0.2-0.2,0.1-0.3,0.1-0.3c0.1-0.1,0.2-0.1,0.2-0.2c0,0,0.1,0,0,0.1c0.1-0.1,0.4-0.3,0.4-0.4c0,0,0.1-0.1,0.1-0.1
						c0.1-0.1,0.2-0.1,0.3-0.3l0,0c0-0.1,0.1-0.1,0.2-0.2l0,0c0.3-0.2,0.1-0.1,0.4-0.3l0,0c-0.1-0.1,0.3-0.2,0.4-0.3l-0.1,0
						c0.1-0.1,0.3-0.1,0.4-0.2c0,0,0,0,0,0.1c0.2-0.2,0-0.1,0.1-0.2c0.1,0,0,0.1,0.1,0c0.1,0,0.2-0.4,0.4-0.5c0,0-0.1,0,0-0.1
						c0.1-0.1,0.4-0.2,0.4-0.4c0,0,0,0,0,0c0.1-0.1,0.2-0.3,0.3-0.4c0.2,0,0.4-0.6,0.6-0.4l0.2-0.3l0,0c0.2-0.2,0.2-0.2,0.2-0.3
						c0,0,0,0,0,0c0.3-0.2,0.3-0.2,0.4-0.5l0.1,0c0-0.1,0.4-0.3,0.6-0.5c0,0,0,0,0,0c0.2-0.3,0.7-0.5,0.7-0.7l0.1-0.2
						c-0.2,0.2,0-0.1-0.1,0c0.1-0.1,0.3-0.2,0.2-0.1l0,0c0,0.1,0.3-0.2,0.3-0.2c0.4-0.4,0.9-0.8,1.3-1.2l-0.1,0l0.1-0.1
						c0,0,0.1,0,0,0.1c0.1,0,0.1-0.2,0.1-0.2c0.2-0.2,0,0.1,0,0.1l0.1-0.1l0,0c0-0.1,0-0.1,0.2-0.2c0.1-0.1,0.1,0,0.1,0c0,0,0,0,0,0
						l0.2-0.2l-0.1,0c0.1-0.1,0.2-0.2,0-0.1c0.2,0,0.7-0.6,0.8-0.7c0.1-0.1,0.2-0.2,0.3-0.4c0,0-0.1,0,0-0.1
						c0.1,0.1,0.3-0.2,0.4-0.2c-0.1,0,0.3-0.3,0.1-0.3c0.1-0.1,0,0,0.1,0c0.2-0.3,0.5-0.5,0.8-0.8c0,0-0.1,0,0-0.1l0.2-0.1
						c0.1-0.1,0-0.1,0.1-0.2c0,0-0.1,0,0,0c0.6-0.5,1.1-1.2,1.8-1.6c-0.1,0.1-0.1,0,0-0.1c0,0,0,0-0.1,0l0.3-0.2
						c0-0.1,0.3-0.3,0.2-0.3l-0.1,0.1c0-0.2-0.3,0-0.3-0.1c-0.1,0.2-0.4,0.2-0.5,0.5c-0.1,0,0-0.1,0-0.1c0,0.1-0.1,0.1-0.2,0.2l0,0
						c-0.3,0.3-0.4,0.4-0.8,0.7l0.1,0c-0.1,0.1-0.1,0.1-0.1,0.1c0,0.1,0.2-0.2,0.2-0.1c-0.2,0-0.5,0.5-0.6,0.5c-0.1,0.1,0.1,0,0,0.1
						l0,0l0,0.1c-0.1,0.1-0.1,0.1-0.2,0.1c0,0,0-0.1,0.1-0.1c-0.1,0.1-0.3,0.3-0.3,0.3l0.1-0.1c-0.3,0.3-0.7,0.6-0.9,1l0,0
						c-0.2,0.2-0.2,0.2-0.4,0.4l0,0c0,0.1-0.1,0.1-0.2,0.2c0-0.1-0.1,0.1-0.1,0c-0.2,0.3-0.1,0.1-0.2,0.4l-0.1,0
						c0,0.1,0,0.1-0.1,0.2c0.1-0.1-0.1,0,0-0.1c-0.3,0.2-0.3,0.4-0.5,0.5c0,0.2,0.3-0.2,0.2-0.1c0.1,0,0,0.1-0.1,0.2
						c-0.1,0.1-0.2,0-0.4,0.2c0,0,0,0,0,0c-0.1,0.1-0.1,0.2-0.2,0.2c0,0.1-0.1,0.1-0.1,0.2l0.2-0.2c-0.1,0.1-0.1,0.3-0.3,0.4
						c0,0,0-0.1,0.1-0.1c-0.1,0-0.1,0.1-0.2,0.1c0-0.1,0.2-0.2,0.3-0.4c-0.1,0-0.2,0.3-0.2,0.1c0,0.2-0.2,0.2-0.3,0.4l0,0
						c0,0,0,0.1-0.1,0.1l0-0.1c-0.1,0.1-0.2,0.2-0.3,0.3c0.2-0.2,0.1,0,0.2-0.1c-0.2,0.3-0.2,0.1-0.5,0.4c0,0,0.2-0.1,0.1-0.1
						c-0.1,0.1-0.2,0.1-0.2,0.1c-0.2,0.2,0.1,0,0,0.1c-0.1,0-0.1,0.1-0.2,0.2l0,0c-0.3,0.2,0,0.1-0.2,0.3l0-0.1l-0.1,0.1l0-0.1
						c-0.1,0.1-0.1,0.2-0.3,0.3c0.1,0,0,0.1-0.1,0.2c-0.1,0,0-0.1-0.1,0.1c0-0.1,0-0.1,0.1-0.1c0,0,0-0.1,0-0.1
						c-0.1,0.1-0.2,0.2-0.2,0.2c0,0,0,0,0.1,0l-0.2,0.3c0,0,0,0,0-0.1c0,0-0.1,0.1-0.1,0.2c0,0,0-0.1,0-0.2l-0.2,0.2
						c0,0-0.1,0.1-0.1,0c-0.1,0.1-0.2,0.3-0.4,0.5c0,0,0,0,0,0.1c-0.1,0.1-0.3,0.2-0.4,0.4l-0.1,0c-0.1,0.1,0.2-0.1,0,0.2
						c-0.1,0.2-0.1,0-0.2,0.1c-0.1,0.1-0.1,0.3-0.3,0.4C82.3,87.1,82.4,87,82.4,87z M80.9,88.6c0,0,0.1-0.1,0.1-0.1
						C81,88.6,80.9,88.6,80.9,88.6z M78.5,91.1c0,0,0.1-0.1,0.1-0.1C78.6,91,78.6,91.1,78.5,91.1z M72,98.1C72,98.1,72,98.1,72,98.1
						C72.1,98,72.1,98,72,98.1z M71.9,98.2C71.9,98.2,71.9,98.2,71.9,98.2C71.9,98.2,71.9,98.2,71.9,98.2
						C71.9,98.1,71.9,98.1,71.9,98.2z M87.2,82.9L87.2,82.9C87.2,82.8,87.2,82.8,87.2,82.9z"/>
					<path d="M78.8,90.8C78.8,90.8,78.8,90.8,78.8,90.8C78.8,90.8,78.8,90.8,78.8,90.8z"/>
					<path d="M83.4,86C83.4,86,83.4,86,83.4,86C83.4,86,83.4,86,83.4,86L83.4,86z"/>
					<path d="M73.8,95.7C73.8,95.7,73.9,95.7,73.8,95.7C73.9,95.6,73.9,95.6,73.8,95.7z"/>
					<path d="M71.2,99l0.1-0.1C71.2,98.9,71.2,99,71.2,99C71.2,99,71.2,99,71.2,99z"/>
					<path d="M70.2,99.6C70.2,99.6,70.2,99.6,70.2,99.6L70.2,99.6C70.2,99.6,70.3,99.5,70.2,99.6z"/>
					<path d="M71,99c0,0-0.1,0-0.1,0.1c0,0,0,0,0,0C70.9,99.1,70.9,99.1,71,99z"/>
					<path d="M70.8,99.1C70.8,99.1,70.8,99.1,70.8,99.1C70.8,99.2,70.8,99.1,70.8,99.1z"/>
					<path d="M71.7,98.4C71.7,98.4,71.7,98.4,71.7,98.4C71.7,98.5,71.9,98.2,71.7,98.4z"/>
					<polygon points="70.8,98.9 70.9,98.9 70.9,98.9 					"/>
					<path d="M71.4,98.5l-0.1,0.1c0,0,0,0,0,0C71.3,98.5,71.4,98.5,71.4,98.5z"/>
					<path d="M71.2,98.6C71.2,98.6,71.2,98.6,71.2,98.6C71.2,98.7,71.2,98.6,71.2,98.6z"/>
					<polygon points="71,98.8 71,98.8 71.1,98.7 					"/>
					<path d="M72.5,97.4l0.1-0.1C72.6,97.2,72.5,97.2,72.5,97.4C72.5,97.3,72.5,97.4,72.5,97.4z"/>
					<path d="M72,97.6C72.1,97.6,72.1,97.6,72,97.6L72,97.6L72,97.6z"/>
					<path d="M72.4,97.3C72.4,97.2,72.5,97.1,72.4,97.3C72.4,97.2,72.3,97.4,72.4,97.3z"/>
					<polygon points="74.1,95.6 74.1,95.7 74.1,95.7 					"/>
					<path d="M75.4,94c-0.1,0.1,0,0.1-0.1,0.2c0,0,0.1-0.1,0.1,0C75.4,94,75.5,94,75.4,94z"/>
					<path d="M75.4,94.1C75.4,94.1,75.4,94.2,75.4,94.1C75.4,94.1,75.4,94.1,75.4,94.1z"/>
					<polygon points="92.4,77.7 92.5,77.6 92.4,77.7 					"/>
					<path d="M92.5,77.5L92.5,77.5L92.5,77.5C92.6,77.4,92.5,77.5,92.5,77.5z"/>
					<path d="M80.5,88.7L80.5,88.7C80.6,88.8,80.6,88.7,80.5,88.7L80.5,88.7z"/>
					<polygon points="81.7,87.6 81.7,87.6 81.8,87.6 					"/>
					<path d="M82.6,86.6c0,0-0.1,0.1-0.1,0.1C82.6,86.6,82.7,86.6,82.6,86.6z"/>
				</g>
			</g>
		</g>
	</g>
</g>
</svg>
