<svg width="62" height="62" viewBox="0 0 62 62" fill="none" xmlns="http://www.w3.org/2000/svg">
<path d="M59.9999 1.0417H2.0415C1.48922 1.0417 1.0415 1.48942 1.0415 2.0417V59.938C1.0415 60.4903 1.48922 60.938 2.0415 60.938H59.9999C60.5522 60.938 60.9999 60.4903 60.9999 59.938V2.0417C60.9999 1.48942 60.5522 1.0417 59.9999 1.0417Z" fill="#FFE9D0"/>
<path d="M1.04156 61C1.04156 61 1.04149 48.2451 12.647 42.5832C21.238 38.3938 34.0409 35.6004 34.5354 35.4934C34.5511 35.4899 34.5524 35.4896 34.568 35.4854C35.0529 35.3559 45.2945 32.6094 47.443 30.9896C49.6437 29.3097 53.3806 29.0608 55.6851 19.1473C57.4399 11.6659 56.0378 5.14133 55.2441 2.39009C55.049 1.71359 55.5528 1 56.2569 1H60C60.5523 1 61 1.44772 61 2V59.9378" fill="#EAB481"/>
<path d="M59.9999 1.0417H2.0415C1.48922 1.0417 1.0415 1.48942 1.0415 2.0417V59.938C1.0415 60.4903 1.48922 60.938 2.0415 60.938H59.9999C60.5522 60.938 60.9999 60.4903 60.9999 59.938V2.0417C60.9999 1.48942 60.5522 1.0417 59.9999 1.0417Z" stroke="#1E1E1C" stroke-width="0.334" stroke-miterlimit="10"/>
</svg>
