<?xml version="1.0" encoding="UTF-8"?><svg id="Layer_1" xmlns="http://www.w3.org/2000/svg" xmlns:xlink="http://www.w3.org/1999/xlink" viewBox="0 0 28.12 28.12"><defs><style>.cls-1{fill:#1d1e1c;opacity:.3;}.cls-1,.cls-2,.cls-3{stroke-width:0px;}.cls-4{stroke:#000;}.cls-4,.cls-2,.cls-5{fill:none;}.cls-4,.cls-5{stroke-miterlimit:10;}.cls-6{clip-path:url(#clippath-1);}.cls-7{clip-path:url(#clippath);}.cls-3{fill:#fff;}.cls-3,.cls-5{opacity:.97;}.cls-5{stroke:#1d1e1c;stroke-width:.25px;}</style><clipPath id="clippath"><rect class="cls-2" x="0" width="14.06" height="28.12"/></clipPath><clipPath id="clippath-1"><rect class="cls-2" x="14.06" y="0" width="14.06" height="28.12"/></clipPath></defs><rect class="cls-4" x="-800.19" y="-28.32" width="1830" height="80"/><rect class="cls-4" x="-96.19" y="-98.32" width="211" height="1159.58"/><rect class="cls-3" width="28.12" height="28.12"/><rect class="cls-5" width="28.12" height="28.12"/><g class="cls-7"><path class="cls-1" d="m0,28.12v-14.06c7.77,0,14.06,6.3,14.06,14.06H0Z"/><path class="cls-1" d="m0,0h14.06C14.06,7.77,7.77,14.06,0,14.06V0Z"/></g><g class="cls-6"><path class="cls-1" d="m28.12,28.12v-14.06c-7.77,0-14.06,6.3-14.06,14.06h14.06Z"/><path class="cls-1" d="m28.12,0h-14.06c0,7.77,6.3,14.06,14.06,14.06V0Z"/></g><rect class="cls-4" x="-96.19" y="-98.32" width="211" height="1159.58"/></svg>