<?xml version="1.0" encoding="UTF-8"?><svg id="Layer_1" xmlns="http://www.w3.org/2000/svg" xmlns:xlink="http://www.w3.org/1999/xlink" viewBox="0 0 29.12 29.12"><defs><style>.cls-1{stroke:#000;}.cls-1,.cls-2,.cls-3{stroke-miterlimit:10;}.cls-1,.cls-4,.cls-3{fill:none;}.cls-5,.cls-6{isolation:isolate;}.cls-7{fill:#fcc26f;}.cls-7,.cls-4{stroke-width:0px;}.cls-2{fill:#ffe0b5;stroke:#fff;}.cls-8{clip-path:url(#clippath-1);}.cls-3{stroke:#1d1e1c;stroke-width:.25px;}.cls-9{clip-path:url(#clippath);}.cls-6{opacity:.96;}</style><clipPath id="clippath"><rect class="cls-4" x=".5" y=".5" width="14.06" height="28.12"/></clipPath><clipPath id="clippath-1"><rect class="cls-4" x="14.56" y=".5" width="14.06" height="28.12"/></clipPath></defs><rect class="cls-1" x="-764.55" y="-17.3" width="1830" height="80"/><rect class="cls-1" x="-60.55" y="-327.3" width="211" height="1159.58"/><rect class="cls-1" x="-60.55" y="-327.3" width="211" height="1159.58"/><rect class="cls-2" x=".5" y=".5" width="28.12" height="28.12"/><g class="cls-9"><g class="cls-5"><path class="cls-7" d="m.5,28.62v-14.06c7.77,0,14.06,6.3,14.06,14.06H.5Z"/></g><g class="cls-6"><path class="cls-7" d="m.5.5h14.06c0,7.77-6.3,14.06-14.06,14.06V.5Z"/></g></g><g class="cls-8"><g class="cls-5"><path class="cls-7" d="m28.62,28.62v-14.06c-7.77,0-14.06,6.3-14.06,14.06h14.06Z"/></g><g class="cls-6"><path class="cls-7" d="m28.62.5h-14.06c0,7.77,6.3,14.06,14.06,14.06V.5Z"/></g></g><rect class="cls-3" x=".5" y=".5" width="28.12" height="28.12"/></svg>