<?xml version="1.0" encoding="UTF-8"?><svg id="Layer_1" xmlns="http://www.w3.org/2000/svg" xmlns:xlink="http://www.w3.org/1999/xlink" viewBox="0 0 28.12 28.12"><defs><style>.cls-1{stroke:#000;}.cls-1,.cls-2,.cls-3{fill:none;}.cls-1,.cls-3{stroke-miterlimit:10;}.cls-4,.cls-5{isolation:isolate;}.cls-2,.cls-6,.cls-7{stroke-width:0px;}.cls-6{fill:#c96116;}.cls-8{clip-path:url(#clippath-1);}.cls-3{stroke:#1d1e1c;stroke-width:.25px;}.cls-9{clip-path:url(#clippath);}.cls-7{fill:#db8c53;}.cls-5{opacity:.96;}</style><clipPath id="clippath"><rect class="cls-2" x="0" y="0" width="14.06" height="28.12"/></clipPath><clipPath id="clippath-1"><rect class="cls-2" x="14.06" y="0" width="14.06" height="28.12"/></clipPath></defs><rect class="cls-1" x="-820.93" y="-56.97" width="1830" height="129.58"/><rect class="cls-1" x="-116.93" y="-1086.97" width="211" height="1159.58"/><rect class="cls-1" x="-116.93" y="-1086.97" width="211" height="1159.58"/><rect class="cls-7" width="28.12" height="28.12"/><g class="cls-9"><g class="cls-4"><path class="cls-6" d="m0,28.12v-14.06c7.77,0,14.06,6.3,14.06,14.06H0Z"/></g><g class="cls-5"><path class="cls-6" d="m0,0h14.06C14.06,7.77,7.77,14.06,0,14.06V0Z"/></g></g><g class="cls-8"><g class="cls-4"><path class="cls-6" d="m28.12,28.12v-14.06c-7.77,0-14.06,6.3-14.06,14.06h14.06Z"/></g><g class="cls-5"><path class="cls-6" d="m28.12,0h-14.06c0,7.77,6.3,14.06,14.06,14.06V0Z"/></g></g><rect class="cls-3" x="0" width="28.12" height="28.12"/></svg>