<?xml version="1.0" encoding="UTF-8"?><svg id="Layer_1" xmlns="http://www.w3.org/2000/svg" viewBox="0 0 12.15 32.5"><defs><style>.cls-1{stroke:#000;}.cls-1,.cls-2,.cls-3{fill:none;stroke-miterlimit:10;}.cls-4{fill:#1d26de;}.cls-4,.cls-5{stroke-width:0px;}.cls-2{stroke:#fff;}.cls-2,.cls-3{stroke-width:.25px;}.cls-5{fill:#fff;}.cls-5,.cls-3{opacity:.97;}.cls-3{stroke:#1d1e1c;}</style></defs><rect class="cls-1" x="-1086.92" y="-21.74" width="1830" height="80"/><rect class="cls-1" x="-25.92" y="-251.74" width="99" height="1030"/><rect class="cls-5" y=".02" width="12.15" height="32.47"/><rect class="cls-3" y=".02" width="12.15" height="32.47"/><rect class="cls-4" width="12.15" height="32.5"/><path class="cls-2" d="m3.05,0c0,.27-.03.55-.03.79,0,.7.26,1.18.33,1.83.06.53.03.92.18,1.43.14.45.18.9.21,1.37.05.97.22,1.91.22,2.85s-.54,1.45-.66,2.36c-.08.62-.23,1.19-.11,1.81.09.45.22.82.22,1.31,0,.52.05,1.08-.07,1.58-.11.44-.42.83-.52,1.27-.27,1.17-.08,2.38-.18,3.59-.1,1.23-.65,2.34-.88,3.53-.19.99-.6,1.79-.55,2.81.04.82-.09,1.55-.17,2.38-.08.88,0,1.81,0,2.7,0,.27-.02.58-.04.89"/><path class="cls-2" d="m6.73,0c-.06.63-.24,1.27-.26,1.9-.04.95.16,1.98,0,2.91-.18,1.04-.79,2.34-1.37,3.22-.53.79-1.12,1.4-1.32,2.37-.17.82-.19,1.88-.11,2.74.08.9.52,1.62.81,2.46.39,1.12.16,2.24-.36,3.26-.47.93-1.17,1.33-1.32,2.38-.13.85-.36,1.35-.77,2.17-.24.47-.37.82-.38,1.34-.01.68.18,1.27.33,1.92.18.77.11,1.61.11,2.41,0,.74.16,1.25.44,1.92.19.45.48,1.02.58,1.5"/><path class="cls-2" d="m9.55.03c.25.46.56.92.7,1.32.33.93.46,1.97.93,2.85.26.49.39.84.49,1.37.03.19,0,.43.12.59.14.19.44.21.54.39.27.53-.39,1.37-.5,1.87-.1.43-.02.88,0,1.32.04.73.06,1.37-.32,1.99-.43.7-.99,1.2-1.48,1.85-.53.7-.56,1.22-.56,2.08s.23,1.63.27,2.45c0-.02.02-.11,0-.05,0,.61-.06,1.26,0,1.88.04.43.21.85.04,1.3-.22.57-.84,1.4-1.26,1.86-.75.83-1.54,1.54-2.24,2.43-.57.72-.54,1.71-.82,2.57-.52,1.59-1.69,2.75-1.84,4.4"/><path class="cls-2" d="m8.21,0c0,.17,0,.34.01.48.05.48.09,1.02,0,1.53-.17.93-.16,1.87-.16,2.85,0,1.05.44,1.93.44,2.96,0,.99-.24,2.03-.78,2.85-.47.71-.57,1.86-.48,2.75.05.5.18.76-.1,1.22-.2.34-.45.6-.62,1.03-.23.56-.65,1.05-.86,1.64-.17.46-.18.96-.29,1.43-.23.97-.49,2.04-.81,3.01-.25.75-.67,1.43-.85,2.18-.19.79-.16,1.62-.04,2.42.15.97.05,2.04.1,3.03.02.48.15,1.34.11,2.04"/></svg>