<?xml version="1.0" encoding="UTF-8"?><svg id="Layer_1" xmlns="http://www.w3.org/2000/svg" xmlns:xlink="http://www.w3.org/1999/xlink" viewBox="0 0 28.54 28.54"><defs><style>.cls-1,.cls-2,.cls-3,.cls-4{fill:#fff;}.cls-5{fill:none;stroke:#000;}.cls-5,.cls-2,.cls-3{stroke-miterlimit:10;}.cls-6{opacity:.5;}.cls-2{stroke:#1d1d1b;stroke-width:.25px;}.cls-3{stroke:#064d00;stroke-width:33px;}.cls-4,.cls-7{stroke-width:0px;}.cls-8{clip-path:url(#clippath);}.cls-7{fill:#064d00;}</style><clipPath id="clippath"><rect class="cls-4" x="-.05" y="-.02" width="28.54" height="28.54"/></clipPath></defs><rect class="cls-5" x="-1300.08" y="-25.75" width="1830" height="80"/><rect class="cls-5" x="-140.08" y="-655.75" width="480" height="1159.58"/><rect class="cls-5" x="-140.08" y="-655.75" width="244" height="1159.58"/><rect class="cls-2" x="-.05" y="-.02" width="28.54" height="28.54"/><g class="cls-6"><rect class="cls-1" x="-.05" y="-.02" width="28.54" height="28.54"/><g class="cls-8"><rect class="cls-2" x="-.05" y="-2.73" width="31.25" height="31.25"/><path class="cls-3" d="m12.36-3.15c1.71.02,3.26.03,4.81.06,2.07.04,4.15.04,6.22.18.71.05,1.39.47,2.08.71.43.15.88.26,1.3.44.41.18.96.34,1.11.67.11.24-.23.84-.53,1.08-.57.47-1.24.82-1.89,1.19-1.62.93-2.6,2.24-2.72,4.17-.02.37-.27.82-.55,1.08-.58.53-1.21,1.05-1.91,1.42-1.49.8-2.79,1.91-4.56,2.26-1.37.27-2.26,1.47-3.19,2.47-.06.07-.08.18-.1.27,0,.04.02.09.07.28.4-.4.85-.69,1.08-1.11.44-.8,1.21-.99,1.96-1.23.94-.31,1.87-.63,2.83-.84,1.27-.28,2.57-.44,3.85-.69.53-.1,1.06-.26,1.57-.46.82-.32,1.21-1.58.92-2.51-.23-.72-.47-1.5-.43-2.23.05-.89.67-1.55,1.45-2.03.78-.48,1.55-.98,2.29-1.53.55-.41.89-1.01.63-1.7-.26-.67-.73-1.16-1.57-1.14-.42,0-.83-.12-1.24-.29,1.11-.43,2.23-.3,3.32-.09,1.45.29,1.51.4,1.54,1.91.02.81-.01,1.63.01,2.44.06,1.94.29,3.87.48,5.8.15,1.52.22,3.05.2,4.64-.08-.12-.21-.22-.24-.35-.2-.87-.54-1.74-.54-2.61-.01-1.28-.79-2.01-1.61-2.71-1.03-.88-1.14-1.74-.2-2.69.25-.25.52-.49.8-.76-.14-.1-.22-.19-.25-.17-.8.37-1.64.68-2.39,1.13-.6.36-.66,1.03-.32,1.59.7,1.16,1.31,2.46,2.29,3.35,1.06.96,1.4,2.17,1.88,3.35.41,1-.05,1.77-1.05,2.12-.65.23-1.24.6-1.87.88-.23.1-.49.13-.74.19,0-.24-.05-.48,0-.71.03-.18.17-.35.26-.53-.13-.04-.25-.07-.38-.11-.17.21-.37.4-.5.63-.19.32-.34.66-.5,1-.23.48-.6.69-1.14.66-1.89-.13-3.54.57-5.1,1.51-.84.51-1.22.46-1.66-.41,1.19-.1,1.33-1.11,1.73-1.94.59-1.21,2.01-1.79,3.63-1.52.7.12,1.37.12,1.85-.45.24-.29.42-.74.42-1.11,0-.63-1.11-1.72-1.75-1.87-.64-.16-1.29-.32-1.92-.5-.61-.17-1.18-.17-1.61.34,1.04.35,2.08.7,3.12,1.05.01.06.02.12.03.18-.54.19-1.06.43-1.61.58-1.85.48-2.63,1.91-3.16,3.54-.31.95-.68,1.3-1.6,1.04-.64-.19-1.21-.59-1.83-1.01,1.72-.17,1.72-1.81,2.52-2.74.15-.18.14-.74,0-.87-.21-.18-.64-.2-.96-.15-.62.1-1.24.28-1.85.45-.18.05-.41.14-.5.28-.13.2-.16.47-.23.71.24-.05.48-.09.72-.14.3-.06.59-.13.89-.2-.14.28-.21.64-.43.81-1.01.8-1.99.77-2.99-.02-1.62-1.28-1.66-1.61-.16-3.09.64-.64,1.4-1.15,2.09-1.89-.57.14-1.24.14-1.68.46-.8.58-1.8.96-2.29,1.94-.1.2-.49.36-.73.34-.21-.02-.55-.32-.56-.5,0-.23.23-.51.44-.68.62-.53,1.33-.98,1.91-1.55,1.46-1.41,3.16-2.15,5.21-2.21.94-.03,1.87-.4,2.27-1.41.14-.35.24-.83.1-1.14-.36-.79-.18-1.5.05-2.24.34-1.11.54-2.25.12-3.36-.14-.38-.49-.87-.82-.95-.95-.23-1.94-.27-2.91-.39-.02.1-.04.2-.05.3.67.16,1.34.37,2.02.46.58.07.8.35.92.88.22.92.15,1.71-.48,2.51-.4.52-.56,1.25-.78,1.9-.26.77-.63,1.37-1.46,1.65-2.28.79-4.23,2.04-5.64,4.05-.21.3-.54.52-.83.74-.67.51-1.31.34-1.58-.45-.07-.2.04-.58.2-.69.39-.28.85-.51,1.31-.67.86-.31,1.51-.75,1.88-1.65.3-.72.73-1.31,1.6-1.69.98-.43,1.8-1.31,2.56-2.11.57-.61.31-1.39-.31-2.06-.82-.89-1.57-1.84-2.32-2.78-.13-.16-.17-.4-.31-.74Z"/><path class="cls-4" d="m13.93-3.37c1.71.02,3.26.03,4.81.06,2.07.04,4.15.04,6.22.18.71.05,1.39.47,2.08.71.43.15.88.26,1.3.44.41.18.96.34,1.11.67.11.24-.23.84-.53,1.08-.57.47-1.24.82-1.89,1.19-1.62.93-2.6,2.24-2.72,4.17-.02.37-.27.82-.55,1.08-.58.53-1.21,1.05-1.91,1.42-1.49.8-2.79,1.91-4.56,2.26-1.37.27-2.26,1.47-3.19,2.47-.06.07-.08.18-.1.27,0,.04.02.09.07.28.4-.4.85-.69,1.08-1.11.44-.8,1.21-.99,1.96-1.23.94-.31,1.87-.63,2.83-.84,1.27-.28,2.57-.44,3.85-.69.53-.1,1.06-.26,1.57-.46.82-.32,1.21-1.58.92-2.51-.23-.72-.47-1.5-.43-2.23.05-.89.67-1.55,1.45-2.03.78-.48,1.55-.98,2.29-1.53.55-.41.89-1.01.63-1.7-.26-.67-.73-1.16-1.57-1.14-.42,0-.83-.12-1.24-.29,1.11-.43,2.23-.3,3.32-.09,1.45.29,1.51.4,1.54,1.91.02.81-.01,1.63.01,2.44.06,1.94.29,3.87.48,5.8.15,1.52.22,3.05.2,4.64-.08-.12-.21-.22-.24-.35-.2-.87-.54-1.74-.54-2.61-.01-1.28-.79-2.01-1.61-2.71-1.03-.88-1.14-1.74-.2-2.69.25-.25.52-.49.8-.76-.14-.1-.22-.19-.25-.17-.8.37-1.64.68-2.39,1.13-.6.36-.66,1.03-.32,1.59.7,1.16,1.31,2.46,2.29,3.35,1.06.96,1.4,2.17,1.88,3.35.41,1-.05,1.77-1.05,2.12-.65.23-1.24.6-1.87.88-.23.1-.49.13-.74.19,0-.24-.05-.48,0-.71.03-.18.17-.35.26-.53-.13-.04-.25-.07-.38-.11-.17.21-.37.4-.5.63-.19.32-.34.66-.5,1-.23.48-.6.69-1.14.66-1.89-.13-3.54.57-5.1,1.51-.84.51-1.22.46-1.66-.41,1.19-.1,1.33-1.11,1.73-1.94.59-1.21,2.01-1.79,3.63-1.52.7.12,1.37.12,1.85-.45.24-.29.42-.74.42-1.11,0-.63-1.11-1.72-1.75-1.87-.64-.16-1.29-.32-1.92-.5-.61-.17-1.18-.17-1.61.34,1.04.35,2.08.7,3.12,1.05.01.06.02.12.03.18-.54.19-1.06.43-1.61.58-1.85.48-2.63,1.91-3.16,3.54-.31.95-.68,1.3-1.6,1.04-.64-.19-1.21-.59-1.83-1.01,1.72-.17,1.72-1.81,2.52-2.74.15-.18.14-.74,0-.87-.21-.18-.64-.2-.96-.15-.62.1-1.24.28-1.85.45-.18.05-.41.14-.5.28-.13.2-.16.47-.23.71.24-.05.48-.09.72-.14.3-.06.59-.13.89-.2-.14.28-.21.64-.43.81-1.01.8-1.99.77-2.99-.02-1.62-1.28-1.66-1.61-.16-3.09.64-.64,1.4-1.15,2.09-1.89-.57.14-1.24.14-1.68.46-.8.58-1.8.96-2.29,1.94-.1.2-.49.36-.73.34-.21-.02-.55-.32-.56-.5,0-.23.23-.51.44-.68.62-.53,1.33-.98,1.91-1.55,1.46-1.41,3.16-2.15,5.21-2.21.94-.03,1.87-.4,2.27-1.41.14-.35.24-.83.1-1.14-.36-.79-.18-1.5.05-2.24.34-1.11.54-2.25.12-3.36-.14-.38-.49-.87-.82-.95-.95-.23-1.94-.27-2.91-.39-.02.1-.04.2-.05.3.67.16,1.34.37,2.02.46.58.07.8.35.92.88.22.92.15,1.71-.48,2.51-.4.52-.56,1.25-.78,1.9-.26.77-.63,1.37-1.46,1.65-2.28.79-4.23,2.04-5.64,4.05-.21.3-.54.52-.83.74-.67.51-1.31.34-1.58-.45-.07-.2.04-.58.2-.69.39-.28.85-.51,1.31-.67.86-.31,1.51-.75,1.88-1.65.3-.72.73-1.31,1.6-1.69.98-.43,1.8-1.31,2.56-2.11.57-.61.31-1.39-.31-2.06-.82-.89-1.57-1.84-2.32-2.78-.13-.16-.17-.4-.31-.74Z"/><path class="cls-4" d="m5.85,8.72c.44.65.96,1.26,1.3,1.95.3.61-.18,1.32-.94,1.49-.87.19-1.36.76-1.7,1.52.9-.28,1.84-.5,2.7-.88.37-.16.6-.66.9-1.03.86.36,1.24,1.68.58,2.42-.17.19-.52.27-.8.29-1.57.12-1.77.29-2.03,1.81-.04.22-.1.44-.19.64-.29.66-.9.78-1.33.2-.28-.38-.45-.87-.54-1.33-.12-.62-.49-.99-1.03-1.15-.27-.08-.62.07-.93.12,0,.16,0,.33,0,.49.19-.05.39-.18.57-.14.41.08.71.27.63.82-.21,1.61.54,2.84,1.67,3.87.67.61,1.67.35,1.95-.52.34-1.05,1-1.99.92-3.19-.02-.25.44-.54.69-.79.41-.41.88-.78,1.26-1.22.23-.27.37-.41.73-.21.53.29,1.14.56,1.11,1.26-.04.76-.19,1.49-1.09,1.86-1.36.55-1.62,1.15-1.35,2.58.07.39.15.79.29,1.15.62,1.54.31,2.02-1.27,2.72-1.64.73-3.02.16-4.44-.51-.27-.13-.53-.27-.78-.43-.65-.43-.79-1.12-.38-1.73.51-.76.39-1.48-.34-2.04-.75-.57-.85-1.09-.41-1.94.07-.14.11-.3.17-.49-.8.19-1.2,1.34-.8,2.15.12.24.28.49.48.66.52.43.54.93.21,1.45-.5.78-.29,1.47.2,2.13.96,1.3,2.57,2.15,4.16,2.23-.22.91-1.95,2.13-2.95,2.08-1.15-.06-2.13-1.27-2.32-2.93.21.03.41.05.6.08.02-.06.05-.13.07-.19-.38-.16-.77-.32-1.15-.49-.08.05-.15.11-.23.16-.48-3.28-.45-6.59-.5-9.75.82-.36,1.55-.68,2.28-.98.2-.08.44-.1.65-.06,1.03.18,2.15-.77,2.37-1.93.14-.73.43-1.44.65-2.15.11-.01.23-.02.34-.03Z"/><path class="cls-4" d="m25.56,28.95c-1.13.06-2.25.12-3.38.2-.34.02-.68.09-1.03.12-1.16.09-2.32.11-3.47.28-.72.11-1.35.32-1.97-.33-.21-.22-.76-.11-1.15-.14-.34-.02-.67-.01-1.06-.15.54-.31,1.08-.63,1.63-.93,1.1-.6,1.48-1.74,2.12-2.69.27-.41.67-.97,1.06-1.02,1.55-.19,2.09-1.29,2.53-2.5.38-1.06.44-1.1,1.46-.61.7.34,1.4.69,2.31,1.14-.54.27-.92.4-1.22.62-1.18.86-2.38,1.7-3.14,2.99-.06.1-.14.23-.13.34.13.97-.53,1.24-1.27,1.43-.58.15-1.17.25-1.74.4-.23.06-.43.22-.74.39.99.13,1.81.24,2.64.33.14.01.31-.06.43-.15,1.15-.77,1.65-2.02,2.27-3.17.68-1.25,1.86-1.91,3.25-1.74.19.02.44.07.58-.01.25-.15.6-.37.63-.6.03-.21-.27-.5-.47-.71-.18-.19-.42-.33-.63-.48.31-.22.67-.66.93-.61,1.16.23,2.26-.08,3.39-.22,1.19-.14,1.51-.65,1.1-1.74-.08-.2-.09-.51.02-.68.24-.39.57-.72.94-1.18.33,2.22.8,4.31.59,6.48-.66-1.08-1.69-1.58-2.84-1.33.18.11.31.21.46.29.5.27,1.34.45,1.42.81.1.43-.46,1-.71,1.52-.25.53-.52.56-.96.16-.26-.24-.64-.36-.96-.53-.06.09-.13.18-.19.27.28.28.56.55.96.94-.19.15-.39.39-.64.51-1,.48-2.01.95-3.05,1.34-.2.08-.73-.14-.76-.29-.09-.46,0-.95.01-1.43.09,0,.18,0,.28-.01.08.14.12.34.24.41.16.09.37.07.56.09.01-.28.11-.6.02-.84-.06-.18-.42-.41-.56-.36-.5.18-1.05.37-1.42.72-.66.63-.28,1.35-.02,2.07.23.62.72.39,1.12.48.19.04.38.1.57.15Z"/><path class="cls-4" d="m11.84,15.45c.88.49,1.54.85,2.19,1.22.4.23.81.46,1.17.75.11.09.14.51.09.53-.68.3-.71.89-.76,1.5-.07.74-1.24,1.49-1.95,1.23-.14-.05-.34-.33-.31-.42.18-.41.42-.8.65-1.18.02-.03.09-.03.14-.03.35-.06.89.16.82-.53-.04-.44-.74-1.07-1.17-1-.5.08-.88.36-.88.94,0,.84.02,1.68.03,2.53,0,.58.34.8.87.78,1-.02,1.71-.63,2.34-1.3.16-.17.13-.56.12-.85-.02-.63.69-1.41,1.31-1.28.46.1.89.42,1.31.67.06.04.07.29,0,.38-.83,1.2-1.67,2.39-2.53,3.56-.16.22-.44.37-.7.58-.12-.37-.21-.66-.3-.95-.09-.02-.18-.03-.27-.05-.14.54-.38,1.07-.37,1.61,0,.14.78.43,1.16.36.7-.12,1.17-.65,1.36-1.35.24-.88.69-1.56,1.44-2.1.37-.27.72-.64.93-1.05.3-.58.68-.48,1.11-.31.47.2.91.43.73,1.1-.29,1.13-.78,2.16-1.96,2.53-1.2.37-1.78,1.29-2.33,2.26-.43.76-1.04,1.23-1.89,1.45-.91.24-1.8.59-2.72.75-.54.1-1.13-.05-1.68-.14-.19-.03-.35-.23-.52-.35.15-.18.27-.42.47-.52.41-.22.86-.36,1.3-.55.14-.06.3-.11.39-.22.11-.13.16-.31.24-.47-.18-.02-.39-.12-.54-.06-.79.28-1.57.6-2.35.91-.14.05-.26.17-.4.2-1.22.25-1.83.96-1.82,2.23,0,.15-.36.43-.55.43-1.63-.03-3.26-.08-4.89-.19-.7-.05-.89-.53-.54-1.33.94.72,1.99.89,3.06.41.62-.28,1.28-.56,1.76-1.02,1.35-1.27,2.71-2.43,4.64-2.78,1.2-.22,1.58-1.47.86-2.52-.57-.83-1.09-1.64-1.25-2.66-.08-.52.03-.87.45-1.16.25-.17.5-.32.73-.51.57-.47,1.37-.8,1.01-2.05Z"/><path class="cls-4" d="m9.1,1.56c.03-.84.54-1.15,1.18-1.36.41-.14.54-.02.56.39.04,1.23-.99,2.24-2.22,2.41-1.14.16-2.25.56-3.38.81-.27.06-.64,0-.87-.14-.18-.12-.23-.46-.33-.7.23-.09.47-.26.7-.26.75.01,1.31-.15,1.68-.92.24-.49.75-.85,1.11-1.29.31-.38.65-.75.86-1.18.32-.66.02-1.4-.65-1.74-.34-.17-.7-.31-1.05-.46.01-.08.02-.17.03-.25,1.05.08,2.1.17,3.15.26.12.01.23.09.35.09.5.03,1.13-.13,1.48.11.52.36.97.95,1.24,1.54.32.72.61,1.36,1.31,1.82.51.34.33.91-.07,1.29-.74.71-1.59,1.33-2.28,2.09-.47.51-.81,1.17-1.1,1.82-.36.8-.88,1.26-1.78,1.37-.5.06-.97.32-1.47.45-.19.05-.46.1-.6,0-.15-.1-.31-.39-.27-.55.04-.15.33-.34.5-.34,1.05.02.97-.95,1.37-1.5-.18-.12-.45-.37-.52-.32-.38.26-.7.61-1.06.89-.24.19-.63.52-.78.44-.34-.17-.64-.52-.81-.87-.06-.13.26-.59.49-.68,1.04-.38,2.09-.79,3.17-.98,1.99-.34,3.12-2.7,2.01-4.4-.58-.89-.56-.88-1.22-.05-.21.27-.54.45-.75.72-.36.44-.52.92.03,1.48Z"/><path class="cls-4" d="m32.18,13.63c.06.83.28,1.63-.35,2.29-.13.14-.33.26-.5.28-.73.07-1.42.19-2.03.71-.26.22-.64.29-.95.45-.17.09-.32.21-.45.35-.03.03.09.29.17.31.19.05.43.08.6,0,.19-.09.3-.34.48-.47.47-.33.95-.66,1.45-.93.11-.06.33.11.5.18-.06.16-.07.38-.18.47-.61.47-1.12.98-1.43,1.74-.25.63-.94.67-1.53.78-.6.11-1.27.18-1.75.52-.74.52-1.34.29-1.96-.07-.67-.39-1.33-.82-1.96-1.28-.23-.17-.56-.53-.51-.7.08-.27.41-.59.68-.65.88-.18,1.8-.44,2.66-.32,1.46.19,2.62-.25,3.7-1.22.73-.66,1.4-1.39,2.42-1.61.33-.07.59-.51.95-.85Z"/><path class="cls-4" d="m4.01,8.57c.15-.2.28-.42.45-.6.16-.17.37-.29.56-.44.12.25.4.62.32.75-.77,1.2-1.17,2.73-2.72,3.29-1.16.42-1.97-.12-2.06-1.33-.03-.42.1-.57.5-.65.25-.05.46-.26.69-.4-.04-.1-.08-.2-.12-.3-.62.19-1.25.37-1.96.59-.42-1.75.06-3.54-.12-5.32.13-.04.25-.07.38-.11.24.34.51.65.71,1.02.14.26.17.57.24.86.21.82.81,1.12,1.57.74.37-.19.67-.51,1.04-.72.19-.11.44-.12.66-.17.02.24.09.5.04.73-.14.65-.33,1.28-.5,1.92.12.05.24.1.36.16Z"/><path class="cls-7" d="m25.56,28.95c-.19-.05-.38-.11-.57-.15-.4-.09-.89.14-1.12-.48-.26-.72-.64-1.44.02-2.07.37-.35.92-.55,1.42-.72.14-.05.49.19.56.36.09.25,0,.56-.02.84-.19-.03-.4,0-.56-.09-.12-.07-.16-.27-.24-.41-.09,0-.18,0-.28.01-.02.48-.1.97-.01,1.43.03.15.56.37.76.29,1.04-.4,2.05-.87,3.05-1.34.25-.12.45-.35.64-.51-.39-.38-.68-.66-.96-.94.06-.09.13-.18.19-.27.32.17.7.29.96.53.43.4.7.37.96-.16.25-.52.81-1.09.71-1.52-.08-.36-.92-.54-1.42-.81-.15-.08-.28-.18-.46-.29,1.14-.25,2.18.25,2.84,1.33,0,.09,0,.17,0,.26-.35.59-.88,1.15-1,1.79-.12.62.18,1.32.3,2.06-.28-.09-.58-.12-.83-.26-.75-.43-1.54-.44-2.29-.14-.92.36-1.79.83-2.69,1.25h.02Z"/><path class="cls-4" d="m3.07-3c.45.05,1-.04,1.31.2.25.19.19.77.39,1.24.05-1.18.68-.84,1.31-.68,1.77.45,1.85.68.73,2.14-.34.45-.6.97-.81,1.49-.17.44-.43.62-.89.63-.32,0-.67,0-.95.13-.58.29-.79.07-.94-.48-.14-.51-.05-.73.5-.81.31-.04.76-.19.85-.42.09-.23-.13-.62-.28-.91-.41-.78-.86-1.53-1.3-2.3.03-.08.06-.16.09-.24Z"/><path class="cls-4" d="m.08-.02c.1.24.21.47.3.71.43,1.04.93,2,2.1,2.42.85.3,1.05,1.28.44,1.94-.07.07-.12.16-.2.22-.29.2-.6.39-.9.58-.18-.3-.37-.6-.55-.91-.18-.29-.32-.61-.53-.88C-.3,2.73-.53,2.21.08-.02Z"/><path class="cls-4" d="m25.54,28.95c.89-.42,1.77-.89,2.69-1.25.76-.3,1.54-.29,2.29.14.24.14.55.18.83.26-.13-.74-.42-1.44-.3-2.06.12-.64.65-1.19,1-1.79.09,1.1.17,2.2.27,3.3.06.69-.18,1.05-.93,1.08-1.95.08-3.89.2-5.84.31Z"/><path class="cls-4" d="m1.79.95C.69.3-.27-1.38-.08-2.26,1.06-1.51,1.17-.22,1.79.95Z"/></g></g><rect class="cls-5" x="-140.08" y="-655.75" width="480" height="1159.58"/><rect class="cls-5" x="-140.08" y="-655.75" width="244" height="1159.58"/></svg>